<svg version="1.0" xmlns="http://www.w3.org/2000/svg" width="1706.667" height="1202.667" viewBox="0 0 1280 902"><path d="M651.5 2.3c-4.7 2.7-12.9 12.5-18.4 22.2-2.2 3.8-13.5 29.3-25.1 56.5-24.1 56.5-36.2 81.1-50.5 102.5-12.1 18.1-19.3 27.2-34.5 43-6.4 6.6-12.2 13.5-13 15.4-1.2 3.1-1.2 3.7.6 6.9 1 2 3.3 4.4 5.1 5.5 2.9 1.7 3.4 1.7 6.1.3 4.4-2.3 13.5-12.8 21.3-24.6 4.4-6.6 19.4-35.3 40.3-77 36-71.9 39.5-78.5 52.5-99.4 8.4-13.5 20-27.1 22.5-26.3.6.2 2.1 2.1 3.3 4.3C664.3 36 674.3 65.8 679 83c3.7 13.3 4 13.9 8.8 19.2 5 5.5 12.3 9.1 18.8 9 5.5 0 13.1-1.8 15.1-3.4 3.1-2.5 31.7 22.5 45.5 39.7 16.1 20.2 38.5 61.5 43.8 80.9 2.3 8.1 2 9.5-1.9 9.6-2.8 0-9.3 4.6-11.4 8-3.3 5.3-2.9 16.7 1.2 28.5 1.6 4.9 2.9 9 2.8 9.2-.2.1-3.4-1-7.2-2.4-6.3-2.4-8.4-2.7-20.5-2.7-13-.1-13.7 0-18.9 2.7-3.1 1.7-8.5 6.1-12.6 10.5l-7.3 7.6h-5.8c-3.3 0-13.3-.4-22.4-.9-14.2-.7-17-.6-19.6.8-7.2 3.7-12.3 11.5-19 29-4.6 12-9.3 19.5-17.8 28.6-8.3 8.7-12.9 11-23 11.8-7 .5-7.3.5-10.8-2.5-4.8-4.2-9-12.6-14.9-29.3-5.3-15.2-8-20.5-14.8-28.9-5.3-6.6-6.3-7.3-12.1-10.4-9.1-4.8-22.1-5.8-40.5-3.1-14.6 2.1-14.4 2.1-18.8-3.5-4.7-6.1-11.7-9.6-20.9-10.5-5.8-.6-7.1-.4-10.8 1.6-2.3 1.3-5.5 4.1-7.1 6.3l-2.9 4 2.5 2.6c1.4 1.4 2.5 3.2 2.5 3.9 0 2-10.4 19.4-18.4 30.6-13.4 19.1-27.2 35.5-70.7 84.1-38.5 42.9-53.5 58.9-112.5 119.4-106.9 109.7-122.7 124-173.7 158.2-12.1 8.1-15.3 10.8-18.1 15.1-7 10.6-6.8 18.8.5 25 5.3 4.6 11.4 6.2 22.4 6.1 8-.1 10.5-.6 22.5-4.8 51.9-18.1 99.1-28.6 129.1-28.6h7.6l-9.3 18.9c-5.2 10.4-10.5 22.4-12 26.8-3 8.9-3.6 19.4-1.4 25.8 3.1 9.6 11.3 17.1 21.7 20.1 4.9 1.4 5.9 1.4 15-.6 5.4-1.1 18.1-4.3 28.3-7 25.8-6.8 30.4-7.6 57-10 12.9-1.1 30.9-3 40-4 26.5-3.2 52.5-4.4 60.9-3 3.9.6 7.1 1.4 7.1 1.7 0 .3-2.6 5.1-5.8 10.7-9.8 17.1-13.2 26.7-13.2 37.1 0 7.4 2.4 12.9 7.3 17.2 7.6 6.7 16.3 6.7 34.7.1 16.1-5.7 26.4-8.4 36.8-9.8 10.9-1.4 11.7-1.1 17.1 6.9 6 8.8 13.2 16.2 22.9 23.5 13.8 10.5 26.3 16.4 40.2 19l6.5 1.3-4 1.9c-2.2 1.1-7.8 4.9-12.5 8.3-4.7 3.5-10.6 7.5-13.2 9-5.9 3.2-6.2 4.5-.6 2.5 2.2-.8 9.5-2.1 16.2-3 6.7-.8 20.4-3.5 30.6-6 36.7-8.9 42.6-9.9 73.8-12.4 33.7-2.8 44.1-5.5 52.5-13.7 9-8.7 10.5-17.1 5.8-34.4-3.6-13.5-3.8-17.2-1.1-21.7 2.3-3.7 13.6-11.4 21.9-14.7 13-5.3 71.2-20.7 99.6-26.4 59.3-11.8 99.7-13.5 141.5-6 21.6 3.9 23.5 4.4 24.7 7.1 2.5 5.4 9.6 12.8 14.6 15.2 6.4 3.2 18.1 4.4 24.5 2.7 10.6-2.9 17.4-14.1 17.5-28.8.1-7.4-.2-8.8-3.3-14.9-5-9.6-6.4-10.4-20.1-11.3-10.4-.7-11.1-.8-8.4-2 1.6-.7 3.7-1 4.7-.8 3.3.9 1.8-.8-4.3-4.8-15.9-10.5-52.1-55.4-79.3-98.4-8.5-13.4-11.7-19.2-33.4-59.1-26.8-49.4-35.5-66.4-62.7-121.5-14.4-29.2-36.6-72.8-49.4-96.9-29-54.5-31.6-60.4-34.6-75.8l-1.2-6.7 2.8-.6c3.7-.8 12.2-8.5 14.3-12.9 4-8.4 1.8-14.1-12-31.6-6.3-8-20.1-27.3-30.6-43-10.6-15.7-26.5-38.7-35.3-51.1-8.9-12.4-17.9-25.4-20-29-9.2-15.5-17.4-20.1-29.9-16.7-6.7 1.8-8.8.4-13.7-9.4-5.9-11.7-8.5-18.9-13.4-37.8-4.7-17.8-7.6-25.5-10.3-27.7-3.3-2.7-11.7-6.3-14.7-6.3-1.6 0-4.8 1-7 2.3z"/><path d="M121.3 201.4c-5 1.4-11.3 3.4-14 4.6-8.1 3.6-26 13.9-41.8 24-8.2 5.2-18.8 11.8-23.5 14.5-15.4 8.8-22 13.4-22 15.3 0 4.4 9 14.2 13.1 14.2.9 0 3.1-2.4 4.9-5.3 8.5-13.2 31.5-31.7 54.6-44 32.3-17.1 40.2-17.7 64.7-4.4 11.1 6.1 24 10.5 32.9 11.2 4 .4 13.4.2 20.9-.4 17.2-1.3 26.3-.4 51.6 5.3 35 7.9 38.2 8.8 31.5 9.3-1.5.1-9.4 2.3-17.6 4.8-20.5 6.4-26.5 7.5-45.6 8.1-14.5.6-19 .3-37-2.1-30.5-4.1-34.4-4.4-47.6-3.5-8.6.6-14.2 1.6-20 3.5-9.3 3.1-34.5 14-45.9 19.9-8.8 4.5-11.7 4.8-23.5 2.8-3.6-.6-10.9-1.8-16.3-2.7-5.4-.8-11.9-2-14.5-2.6-3.7-.8-6.1-.7-11.7.7-3.8.9-7.7 2.3-8.6 3-.8.8-2.5 1.4-3.7 1.4-3.2 0-2.7 1.7.8 2.3 1.7.4 3 1.2 3 2 0 1.2 7.4 7.4 11.5 9.5 1.1.5 4.7 1.5 8 2.2 6.6 1.4 22 7.3 24.5 9.4 4.2 3.7 24.1 10.6 36.6 12.7 6.3 1 7.9.9 15.5-1 4.6-1.2 12-3.8 16.4-5.7 4.4-2 11.8-5 16.5-6.7 8-2.9 9.3-3 22-3 7.4.1 27.4 1.3 44.5 2.7 35.2 3 54 3.3 63.2 1.1 3.5-.8 10.3-3.5 15.1-5.9 4.9-2.4 11.7-5.7 15.3-7.2l6.4-2.8 36.5-.1c39.1-.1 43.8-.5 65.9-6.7 7.9-2.1 33.3-13.7 34.5-15.7.4-.6 1.9-1.1 3.4-1.1 3.7 0 4.8-1 5.5-4.6.9-4.9-.9-10-4.1-11.3-3.4-1.4-6.5-.9-12.6 1.9-6.7 3.1-15.9 3.9-43.1 4.2-24.5.1-31.6-.6-51.5-5.7-5.2-1.3-13.8-2.9-19-3.5-11.2-1.4-23-4.6-51.5-14.3l-21-7.1-27-.7c-16.4-.4-28.5-1.1-30.8-1.8-5.3-1.7-19-8.1-27.2-12.7-18.4-10.3-24.4-11.6-38.2-8zM976 222c-6.9 1.5-27.6 12.1-37 19.1-21.1 15.5-37.9 30.9-44.7 40.9-3.5 5.2-10.3 18.4-10.3 20.1 0 .6-2.1 3-4.7 5.4l-4.8 4.4 2.6 4.8c2.4 4.4 3.3 5 9.9 7.6 8.7 3.4 17.5 4.3 53 5.7 25.7 1 39.2 2.4 53 5.5 10.6 2.4 27.1 1.6 41-2 5.8-1.5 14.3-2.9 19-3.2 9.7-.6 11.4-.2 39.4 9.8 30.6 10.9 41.7 12.1 58.8 6.5 9.6-3.2 27.4-12 30.9-15.3l2.7-2.5 11.3 1.1c11.4 1.2 19.9 2.6 48.6 8.1 17.9 3.5 23.9 3.7 29.1 1.1 15.2-7.7 1.8-28.9-27.3-43.3-24.7-12.3-48.3-18.5-83-21.9-33.9-3.2-52.8-6.4-72.5-12.3-15.8-4.7-19.8-6.3-41.5-17.5-25.7-13.2-36.2-17.8-45.8-20.1-10.2-2.4-21.8-3.2-27.7-2zm35 13.8c4.7 1.6 15.9 6.3 25 10.5 27.2 12.4 39.9 17.4 52.2 20.7 20.8 5.5 55.3 11.9 78.3 14.5 23.7 2.6 45.9 7 55.9 11 21.6 8.7 41.3 23.9 43.2 33.3.6 3 .5 3.1-4.2 3.8-12.3 1.8-31.8-6.1-51.9-21.2-3.8-2.9-10.1-6.9-14-9.1-6.6-3.6-7.5-3.8-15-3.7-5.6.1-11.7 1.1-20 3.3-14.8 4-22.1 4.7-31.1 3.2-6.6-1.1-11.7-3-37.4-13.8-17.6-7.4-21.8-8.5-33-9-13.6-.7-25.6 1.4-39.7 6.8-8.6 3.2-15.8 4.9-35.8 8.4-13.7 2.4-28.3 5.1-32.4 6-10 2.1-34.7 3.7-44.8 2.9l-8.2-.7 2.6-4.6c5.5-9.6 17-25.6 23.2-32.3 13.5-14.6 34-27.8 50.1-32.2 9.1-2.5 26.4-1.5 37 2.2zM82.2 653c-.7 1.1-.8 2-.3 2 .9 0 2.4-3 1.8-3.6-.1-.2-.8.6-1.5 1.6z"/></svg>