<svg xmlns="http://www.w3.org/2000/svg" height="669.333" width="669.333"><defs><clipPath id="a" clipPathUnits="userSpaceOnUse"><path d="M419.309 2499.33C425.793 1342.3 1371.48 409.648 2531.65 416.148c1160.17 6.473 2095.47 949.662 2088.95 2106.692-6.49 1157.02-952.27 2089.7-2112.39 2083.21-1160.15-6.5-2095.374-949.67-2088.901-2106.72z"/></clipPath><clipPath id="c" clipPathUnits="userSpaceOnUse"><path d="M1868.73 2728.72c104.14 109.97-106.31 258.35-191.24 284.8-31.6 9.8-68.27 14.2-103.19 22.23-45.98-101.78-77.14-211.68-89.84-327.2 147.79-.54 327.76-39.5 384.27 20.17z"/></clipPath><clipPath id="e" clipPathUnits="userSpaceOnUse"><path d="M2105.9 3045.84c51.74-6.87 94.86-27.43 135.67-43.1 57.71-22.12-140.69 578.84-253.54 507.72-119.3-75.05-223-172.79-305.23-287.12 43.28-28.24 84.26-63 120.58-82.4 84.77-45.57 209.26-82.81 302.52-95.1z"/></clipPath><clipPath id="g" clipPathUnits="userSpaceOnUse"><path d="M3187.72 2140.99c-22.42-93.54-62.13-155.41-53.97-256.96 10.82-134.26 81.02-239.46 159.46-342.02 94.38 66.05 177.86 146.63 247.08 238.56z"/></clipPath><clipPath id="i" clipPathUnits="userSpaceOnUse"><path d="M3263.52 3523.33c-83.42 5.91-457.21-184.24-404.62-521.46-196.12 292.76-179.95 1068.56 274.99 679.54 53.57-45.74 94.01-106.7 123.21-170.95z"/></clipPath><clipPath id="k" clipPathUnits="userSpaceOnUse"><path d="M2317.68 3676.18c145.77-124.33 88.08-514.89 132.74-668.04 156.33 62.72 239.59 331.35 242.57 481.92 1.7 85.05-2.51 156.19-81.76 194.97-107.08 52.43-198.72 27.84-293.55-8.85z"/></clipPath><clipPath id="m" clipPathUnits="userSpaceOnUse"><path d="M3156.68 2367.44c8.4 119.91 365.99 158.64 592 171.05.12-8.41.58-16.63.58-25.15 0-171.42-35.24-334.58-98.69-482.74-201.53 80.26-502.06 219.95-493.89 336.84zm-45.24-930.61c-91.27 174.62-265.16 539.93-173.1 629.24 88.84 86.24 403.83-149.49 569.02-284.4-105.3-141.62-240.36-259.53-395.92-344.84zm-589.41-150.72c-44.34 0-88.24 2.5-131.45 7.11 19.83 213.44 71.04 576 192.01 601.61 121.53 25.51 261.81-331.43 333.89-543.66-123.8-41.94-256.37-65.06-394.45-65.06zm-434.16 2375c135.01 51.08 281.34 79.3 434.16 79.3 25.07 0 49.85-.95 74.51-2.48-6.81-207.36-35.5-560.57-150.8-592.1-117.86-32.32-277.15 315.82-357.87 515.28zm69.45-2319.89c-173.55 53.96-330.48 145.33-461.55 264.78 127.14 145.97 411.35 450.04 529.71 395.74 117.82-53.97-3.48-466.56-68.16-660.52zm-837.88 927.05c205.09 52.4 580.56 130.78 646.38 22.54 67.47-111.04-253.13-380.54-425.41-513.9-107.26 142.83-184.15 309.85-220.97 491.36zm-24.49 245.07c0 177.11 37.76 345.16 105.26 497.24 191.95-81.62 501.97-232.19 490.26-349.48-11.82-119.04-378.27-144.47-595.52-148.99v1.23zm572.43 1037.62c123.73-178.2 293.59-455.67 223.18-547.78-73.61-96.16-397.75 71.67-592.78 185.68 96.06 145.28 222.25 268.91 369.6 362.1zm1005.7 138.25c167.86-50.03 320.55-135.06 449.88-246.55-137.61-167.73-355.52-403.21-462.73-360.99-110.31 43.46-42.81 387.78 12.85 607.54zm843.8-896.34c-202.42-46.01-550.45-107.47-610.19-4.03-59.34 102.79 219.19 334.74 393.2 465.72 102.38-134.78 177.29-291.45 216.99-461.69zM2519.92 4049.88c-849.79 0-1538.768-688.92-1538.768-1538.68 0-849.99 688.978-1538.899 1538.768-1538.899 849.87 0 1538.81 688.909 1538.81 1538.899 0 849.76-688.94 1538.68-1538.81 1538.68z"/></clipPath><clipPath id="o" clipPathUnits="userSpaceOnUse"><path d="M3692.03 1930.87l-70.09 27.87c-492.78 196.11-548.74 324.36-542.5 414.17 6.79 96.27 88.46 210.99 664.93 242.84 0 0 79.22 4.4 79.24 3.71l2.32-79.3.28-8.56c.18-5.52.42-11.71.42-18.26 0-177.94-35.34-350.58-104.93-513.19zm-122.6-195.35c-111.59-149.98-257.05-276.79-420.78-366.64l-69.24-38-36.51 70.06c-303.16 580.15-198.06 682.25-158.43 720.63 69.96 68.08 209.63 97.62 671.81-280.05l57.22-46.68zm-628.11-457.56c-135.39-45.93-276.47-69.24-419.29-69.24-45.47 0-92.45 2.52-139.6 7.59l-75.96 8 7.07 76.05c52.27 563.8 169.47 652.49 253.12 670.15 96.09 20.26 231.06-29.02 423.11-594.39l24.86-73.34zm-734.6-33.14l-72.39 22.48c-180.5 56.13-350.21 153.48-490.67 281.59l-55.89 50.88 49.68 57.08c435.4 500.05 569.73 438.46 620.31 415.22 90.77-41.58 169.74-165.09-27.03-755.34zm-681.03 422.86l-47.15 62.68c-115.62 153.98-196.81 334.59-234.91 522.55l-14.65 72.12 71.3 18.21c626.82 160.03 702.95 34.91 731.64-12.27 52.18-85.96 48.98-233.61-444.16-615.27zm-308.14 845.66c0 183.47 37.69 361.25 111.97 528.63l30.87 69.57 70.12-29.81c492.88-209.58 545.83-338.92 536.98-428.32-9.56-95.37-94.36-206.51-670.89-218.69 0 0-79.05-1.68-79.05-.45zm215.64 718.21c101.41 153.39 237.29 286.43 392.87 384.77l62.62 39.62 42.26-60.79c299.3-431.05 275.31-567.94 221.02-638.96-58.87-77.08-190.95-127.83-693.23 165.82l-70.57 41.33zm627.31 501.94c147.9 55.96 303.14 84.29 461.53 84.29 24.65 0 50.55-.81 79.3-2.59l75.06-4.67-2.52-75.2c-18.13-549.29-127.23-642.15-207.74-664.16-93.51-25.51-229.09 14.98-449.98 560.89l-29.67 73.46zm737.56-25.3l19.82 78.11 77.27-22.95c176.79-52.71 337.72-140.89 478.33-262.16l57.19-49.38-47.93-58.26c-330.42-402.39-467.93-416.54-550.82-383.88-89.23 35.16-173.73 146.36-33.86 698.52zm716.87-345.48l46.57-61.33c111.35-146.58 188.93-311.82 230.72-490.96l17.69-75.82-75.87-17.17c-535.33-121.5-652.66-39.5-694.31 32.74-47.79 82.63-43.9 221.79 413.62 566.16zm-995.01 609.75c-805.8 0-1461.43-655.48-1461.43-1461.26 0-805.91 655.63-1461.55 1461.43-1461.55 390.37 0 757.37 152.04 1033.42 428.02 275.99 276.09 428.04 643.11 428.04 1033.53 0 805.78-655.58 1461.26-1461.46 1461.26z"/></clipPath><clipPath id="q" clipPathUnits="userSpaceOnUse"><path d="M1165.98 2350.2s875.03 175.16 973.41 29.28c98.24-145.82-635.59-795.09-635.59-795.09l-66.88 115.06s620.25 441.05 528.9 591.36c-91.38 150.23-780.19-59.29-780.19-59.29z"/></clipPath><clipPath id="s" clipPathUnits="userSpaceOnUse"><path d="M2248.35 1199.6s155.54 878.67 327.2 917.13c171.66 38.44 508.98-881.54 508.98-881.54l-131.48-20.32s-184.76 738.2-358.1 707.88c-173.24-30.32-228.92-748.11-228.92-748.11z"/></clipPath><clipPath id="u" clipPathUnits="userSpaceOnUse"><path d="M3760 1880s-821.94 347.6-821.2 523.47c.91 175.91 972.83 299.69 972.83 299.69l-9.45-132.76s-760.84-15.49-769.97-191.28c-9.05-175.57 678.3-390.02 678.3-390.02z"/></clipPath><clipPath id="w" clipPathUnits="userSpaceOnUse"><path d="M3539.21 3488.59s-623.05-638.91-786.57-574.07c-163.48 64.89 75.29 1015.06 75.29 1015.06l120.14-57.13s-262.67-714.26-102.36-786.78c160.31-72.31 610.28 489.65 610.28 489.65z"/></clipPath><clipPath id="y" clipPathUnits="userSpaceOnUse"><path d="M1847.52 3766.47s467.97-759.85 365.21-902.73c-102.66-142.69-966.18 320.16-966.18 320.16l84.71 102.71s628.72-428.71 738.14-290.79c109.17 137.77-326.35 711.09-326.35 711.09z"/></clipPath><clipPath id="A" clipPathUnits="userSpaceOnUse"><path d="M2763.37 2522.76c0-127.56-103.39-230.89-230.91-230.89-127.49 0-230.84 103.33-230.84 230.89 0 127.46 103.35 230.93 230.84 230.93 127.52 0 230.91-103.47 230.91-230.93z"/></clipPath><clipPath id="C" clipPathUnits="userSpaceOnUse"><path d="M2678.81 2524.72c0-79.69-64.63-144.3-144.27-144.3-79.78 0-144.39 64.61-144.39 144.3 0 79.78 64.61 144.43 144.39 144.43 79.64 0 144.27-64.65 144.27-144.43z"/></clipPath><clipPath id="E" clipPathUnits="userSpaceOnUse"><path d="M2013.58 2678.11c-64.85-115.19 96.38-212.1 180.35-111.47-70.58-30.44-180.35 15.23-180.35 111.47z"/></clipPath><clipPath id="G" clipPathUnits="userSpaceOnUse"><path d="M2389.69 3011.23c-64.83-115.17 96.38-212.02 180.33-111.47-70.53-30.36-180.33 15.22-180.33 111.47z"/></clipPath><clipPath id="I" clipPathUnits="userSpaceOnUse"><path d="M2832.45 2759.84c-64.89-115.3 96.35-212.1 180.31-111.48-70.53-30.38-180.31 15.17-180.31 111.48z"/></clipPath><clipPath id="K" clipPathUnits="userSpaceOnUse"><path d="M2746.46 2289.16c-64.85-115.19 96.42-212.06 180.38-111.53-70.55-30.28-180.38 15.21-180.38 111.53z"/></clipPath><clipPath id="M" clipPathUnits="userSpaceOnUse"><path d="M2222.11 2231.14c-64.85-115.25 96.38-212.14 180.34-111.48-70.56-30.41-180.34 15.19-180.34 111.48z"/></clipPath><radialGradient id="b" spreadMethod="pad" gradientTransform="matrix(-2100.05 -11.7752 11.7752 -2094.36 2525.71 2504.23)" gradientUnits="userSpaceOnUse" r="1" cy="0" cx="0" fy="0" fx="0"><stop offset="0" stop-color="#555658"/><stop offset=".672" stop-color="#555658"/><stop offset=".727" stop-color="#201e1d"/><stop offset=".766" stop-color="#f6f6f6"/><stop offset=".806" stop-color="#100f0d"/><stop offset=".861" stop-color="#201f1e"/><stop offset=".949" stop-color="#505152"/><stop offset="1" stop-color="#383738"/></radialGradient><radialGradient id="n" spreadMethod="pad" gradientTransform="matrix(1538.79 0 0 -1538.79 2519.94 2511.09)" gradientUnits="userSpaceOnUse" r="1" cy="0" cx="0" fy="0" fx="0"><stop offset="0" stop-color="#65686c"/><stop offset=".206" stop-color="#65686c"/><stop offset=".283" stop-color="#d0d1d0"/><stop offset=".367" stop-color="#94979a"/><stop offset=".611" stop-color="#505256"/><stop offset=".867" stop-color="#97999d"/><stop offset=".95" stop-color="#fff"/><stop offset="1" stop-color="#525458"/></radialGradient><radialGradient id="p" spreadMethod="pad" gradientTransform="matrix(1461.43 0 0 -1461.43 2519.93 2511.05)" gradientUnits="userSpaceOnUse" r="1" cy="0" cx="0" fy="0" fx="0"><stop offset="0" stop-color="#fff"/><stop offset=".094" stop-color="#fff"/><stop offset=".206" stop-color="#65686c"/><stop offset=".356" stop-color="#d0d1d0"/><stop offset=".939" stop-color="#fff"/><stop offset="1" stop-color="#525458"/></radialGradient><radialGradient id="B" spreadMethod="pad" gradientTransform="matrix(230.891 0 0 -230.891 2532.5 2522.78)" gradientUnits="userSpaceOnUse" r="1" cy="0" cx="0" fy="0" fx="0"><stop offset="0" stop-color="#65686c"/><stop offset=".672" stop-color="#65686c"/><stop offset=".822" stop-color="#fafafb"/><stop offset=".933" stop-color="#525458"/><stop offset="1" stop-color="#525458"/></radialGradient><radialGradient id="D" spreadMethod="pad" gradientTransform="matrix(144.348 0 0 -144.348 2534.48 2524.79)" gradientUnits="userSpaceOnUse" r="1" cy="0" cx="0" fy="0" fx="0"><stop offset="0" stop-color="#fff"/><stop offset="1" stop-color="#211c1c"/></radialGradient><radialGradient id="F" spreadMethod="pad" gradientTransform="matrix(87.8502 0 0 -87.8502 2096.25 2601.33)" gradientUnits="userSpaceOnUse" r="1" cy="0" cx="0" fy="0" fx="0"><stop offset="0" stop-color="#a9aaad"/><stop offset=".006" stop-color="#a9aaad"/><stop offset="1" stop-color="#48484c"/></radialGradient><radialGradient id="H" spreadMethod="pad" gradientTransform="matrix(87.8362 0 0 -87.8362 2472.35 2934.47)" gradientUnits="userSpaceOnUse" r="1" cy="0" cx="0" fy="0" fx="0"><stop offset="0" stop-color="#a9aaad"/><stop offset=".006" stop-color="#a9aaad"/><stop offset="1" stop-color="#48484c"/></radialGradient><radialGradient id="J" spreadMethod="pad" gradientTransform="matrix(87.8512 0 0 -87.8512 2915.1 2683.05)" gradientUnits="userSpaceOnUse" r="1" cy="0" cx="0" fy="0" fx="0"><stop offset="0" stop-color="#a9aaad"/><stop offset=".006" stop-color="#a9aaad"/><stop offset="1" stop-color="#48484c"/></radialGradient><radialGradient id="L" spreadMethod="pad" gradientTransform="matrix(87.8653 0 0 -87.8653 2829.14 2212.38)" gradientUnits="userSpaceOnUse" r="1" cy="0" cx="0" fy="0" fx="0"><stop offset="0" stop-color="#a9aaad"/><stop offset=".006" stop-color="#a9aaad"/><stop offset="1" stop-color="#48484c"/></radialGradient><radialGradient id="N" spreadMethod="pad" gradientTransform="matrix(87.8587 0 0 -87.8587 2304.78 2154.35)" gradientUnits="userSpaceOnUse" r="1" cy="0" cx="0" fy="0" fx="0"><stop offset="0" stop-color="#a9aaad"/><stop offset=".006" stop-color="#a9aaad"/><stop offset="1" stop-color="#48484c"/></radialGradient><linearGradient id="d" spreadMethod="pad" gradientTransform="matrix(412.578 0 0 -412.578 1484.46 2865.65)" gradientUnits="userSpaceOnUse" y2="0" x2="1" y1="0" x1="0"><stop offset="0" stop-color="#fff"/><stop offset=".045" stop-color="#fff"/><stop offset=".143" stop-color="#b0b2b4"/><stop offset=".363" stop-color="#fff"/><stop offset=".489" stop-color="#9fa1a4"/><stop offset=".78" stop-color="#505256"/><stop offset="1" stop-color="#211c1c"/></linearGradient><linearGradient id="f" spreadMethod="pad" gradientTransform="matrix(569.077 0 0 -569.077 1682.8 3259.23)" gradientUnits="userSpaceOnUse" y2="0" x2="1" y1="0" x1="0"><stop offset="0" stop-color="#fff"/><stop offset=".045" stop-color="#fff"/><stop offset=".143" stop-color="#b0b2b4"/><stop offset=".363" stop-color="#fff"/><stop offset=".489" stop-color="#9fa1a4"/><stop offset=".78" stop-color="#505256"/><stop offset="1" stop-color="#211c1c"/></linearGradient><linearGradient id="h" spreadMethod="pad" gradientTransform="matrix(407.627 0 0 -407.627 3132.67 1841.5)" gradientUnits="userSpaceOnUse" y2="0" x2="1" y1="0" x1="0"><stop offset="0" stop-color="#fff"/><stop offset=".045" stop-color="#fff"/><stop offset=".143" stop-color="#b0b2b4"/><stop offset=".363" stop-color="#fff"/><stop offset=".489" stop-color="#9fa1a4"/><stop offset=".78" stop-color="#505256"/><stop offset="1" stop-color="#211c1c"/></linearGradient><linearGradient id="j" spreadMethod="pad" gradientTransform="matrix(523.809 0 0 -523.809 2739.71 3395.1)" gradientUnits="userSpaceOnUse" y2="0" x2="1" y1="0" x1="0"><stop offset="0" stop-color="#fff"/><stop offset=".045" stop-color="#fff"/><stop offset=".143" stop-color="#b0b2b4"/><stop offset=".363" stop-color="#fff"/><stop offset=".489" stop-color="#9fa1a4"/><stop offset=".78" stop-color="#505256"/><stop offset="1" stop-color="#211c1c"/></linearGradient><linearGradient id="l" spreadMethod="pad" gradientTransform="matrix(375.576 0 0 -375.576 2317.68 3361.65)" gradientUnits="userSpaceOnUse" y2="0" x2="1" y1="0" x1="0"><stop offset="0" stop-color="#fff"/><stop offset=".045" stop-color="#fff"/><stop offset=".143" stop-color="#b0b2b4"/><stop offset=".363" stop-color="#fff"/><stop offset=".489" stop-color="#9fa1a4"/><stop offset=".78" stop-color="#505256"/><stop offset="1" stop-color="#211c1c"/></linearGradient><linearGradient id="r" spreadMethod="pad" gradientTransform="scale(-830.41 830.41) rotate(59 -3.1 -.934)" gradientUnits="userSpaceOnUse" y2="0" x2="1" y1="0" x1="0"><stop offset="0" stop-color="#525458"/><stop offset=".006" stop-color="#525458"/><stop offset=".139" stop-color="#94979a"/><stop offset=".511" stop-color="#fff"/><stop offset=".956" stop-color="#97999d"/><stop offset="1" stop-color="#97999d"/></linearGradient><linearGradient id="t" spreadMethod="pad" gradientTransform="scale(-830.336 830.336) rotate(-9.641 10.37 22.48)" gradientUnits="userSpaceOnUse" y2="0" x2="1" y1="0" x1="0"><stop offset="0" stop-color="#525458"/><stop offset=".006" stop-color="#525458"/><stop offset=".139" stop-color="#94979a"/><stop offset=".511" stop-color="#fff"/><stop offset=".956" stop-color="#97999d"/><stop offset="1" stop-color="#97999d"/></linearGradient><linearGradient id="v" spreadMethod="pad" gradientTransform="scale(-830.4076 830.4076) rotate(-86.759 -.329 3.833)" gradientUnits="userSpaceOnUse" y2="0" x2="1" y1="0" x1="0"><stop offset="0" stop-color="#525458"/><stop offset=".006" stop-color="#525458"/><stop offset=".139" stop-color="#94979a"/><stop offset=".511" stop-color="#fff"/><stop offset=".956" stop-color="#97999d"/><stop offset="1" stop-color="#97999d"/></linearGradient><linearGradient id="x" spreadMethod="pad" gradientTransform="scale(830.301 -830.301) rotate(24.606 11.236 5.155)" gradientUnits="userSpaceOnUse" y2="0" x2="1" y1="0" x1="0"><stop offset="0" stop-color="#525458"/><stop offset=".006" stop-color="#525458"/><stop offset=".139" stop-color="#94979a"/><stop offset=".511" stop-color="#fff"/><stop offset=".956" stop-color="#97999d"/><stop offset="1" stop-color="#97999d"/></linearGradient><linearGradient id="z" spreadMethod="pad" gradientTransform="scale(830.398 -830.398) rotate(-51.303 -2.643 -3.767)" gradientUnits="userSpaceOnUse" y2="0" x2="1" y1="0" x1="0"><stop offset="0" stop-color="#525458"/><stop offset=".006" stop-color="#525458"/><stop offset=".139" stop-color="#94979a"/><stop offset=".511" stop-color="#fff"/><stop offset=".956" stop-color="#97999d"/><stop offset="1" stop-color="#97999d"/></linearGradient></defs><g clip-path="url(#a)" transform="matrix(.13333 0 0 -.13333 0 669.333)"><path d="M419.309 2499.33C425.793 1342.3 1371.48 409.648 2531.65 416.148c1160.17 6.473 2095.47 949.662 2088.95 2106.692-6.49 1157.02-952.27 2089.7-2112.39 2083.21-1160.15-6.5-2095.374-949.67-2088.901-2106.72" fill="url(#b)"/></g><path d="M332.073 77.75c.014 2.34 3.431 4.237 7.586 4.213l1.772-.01c4.157-.02 7.556-1.956 7.541-4.297l-9.401-24.936c-.016-2.337-3.435-4.225-7.596-4.207l-1.772.012c-4.154.023-7.551 1.951-7.539 4.291l9.41 24.935" fill="#7d7e80"/><path d="M329.41 77.765c.013 2.342 3.422 4.238 7.58 4.212l1.769-.008c4.162-.024 7.558-1.957 7.546-4.294L336.9 52.737c-.017-2.34-3.43-4.23-7.595-4.205l-1.769.007c-4.157.026-7.547 1.954-7.535 4.289l9.408 24.937" fill="#201e1d"/><path d="M332.073 77.75c.014 2.34 3.431 4.237 7.586 4.213l1.772-.01c4.157-.02 7.556-1.956 7.541-4.297l-9.401-24.936c-.016-2.337-3.435-4.225-7.596-4.207l-1.772.012c-4.154.023-7.551 1.951-7.539 4.291l9.41 24.935" fill="#7d7e80"/><path d="M329.41 77.765c.013 2.342 3.422 4.238 7.58 4.212l1.769-.008c4.162-.024 7.558-1.957 7.546-4.294L336.9 52.737c-.017-2.34-3.43-4.23-7.595-4.205l-1.769.007c-4.157.026-7.547 1.954-7.535 4.289l9.408 24.937" fill="#201e1d"/><path d="M335.088 616.302c.01 2.334 3.427 4.23 7.584 4.207l1.77-.009c4.162-.024 7.558-1.956 7.543-4.296l-9.404-24.935c-.009-2.34-3.434-4.23-7.594-4.206l-1.771.012c-4.156.02-7.552 1.952-7.537 4.289l9.409 24.938" fill="#7d7e80"/><path d="M332.421 616.312c.014 2.339 3.427 4.237 7.582 4.215l1.769-.012c4.163-.022 7.559-1.955 7.547-4.294l-9.408-24.94c-.012-2.334-3.431-4.226-7.592-4.206l-1.77.013c-4.16.022-7.546 1.953-7.532 4.288l9.404 24.936" fill="#201e1d"/><path d="M335.088 616.302c.01 2.334 3.427 4.23 7.584 4.207l1.77-.009c4.162-.024 7.558-1.956 7.543-4.296l-9.404-24.935c-.009-2.34-3.434-4.23-7.594-4.206l-1.771.012c-4.156.02-7.552 1.952-7.537 4.289l9.409 24.938" fill="#7d7e80"/><path d="M332.421 616.312c.014 2.339 3.427 4.237 7.582 4.215l1.769-.012c4.163-.022 7.559-1.955 7.547-4.294l-9.408-24.94c-.012-2.334-3.431-4.226-7.592-4.206l-1.77.013c-4.16.022-7.546 1.953-7.532 4.288l9.404 24.936" fill="#201e1d"/><path d="M592.761 330.599c-2.334.012-4.23 3.426-4.21 7.588l.012 1.768c.022 4.161 1.961 7.557 4.296 7.544l24.934-9.402c2.344-.017 4.234-3.437 4.207-7.598l-.012-1.767c-.017-4.16-1.947-7.556-4.292-7.543l-24.935 9.41" fill="#7d7e80"/><path d="M592.75 327.936c-2.34.013-4.234 3.423-4.214 7.581l.015 1.768c.018 4.163 1.953 7.56 4.293 7.544l24.937-9.404c2.34-.016 4.226-3.433 4.207-7.593l-.015-1.77c-.02-4.16-1.945-7.549-4.288-7.534l-24.934 9.408" fill="#201e1d"/><path d="M592.761 330.599c-2.334.012-4.23 3.426-4.21 7.588l.012 1.768c.022 4.161 1.961 7.557 4.296 7.544l24.934-9.402c2.344-.017 4.234-3.437 4.207-7.598l-.012-1.767c-.017-4.16-1.947-7.556-4.292-7.543l-24.935 9.41" fill="#7d7e80"/><path d="M592.75 327.936c-2.34.013-4.234 3.423-4.214 7.581l.015 1.768c.018 4.163 1.953 7.56 4.293 7.544l24.937-9.404c2.34-.016 4.226-3.433 4.207-7.593l-.015-1.77c-.02-4.16-1.945-7.549-4.288-7.534l-24.934 9.408" fill="#201e1d"/><path d="M54.216 333.612c-2.34.012-4.234 3.428-4.212 7.585l.012 1.771c.023 4.163 1.955 7.559 4.295 7.544l24.936-9.403c2.339-.017 4.228-3.436 4.204-7.594l-.01-1.771c-.022-4.16-1.95-7.555-4.288-7.543l-24.937 9.411" fill="#7d7e80"/><path d="M54.201 330.947c-2.339.016-4.235 3.424-4.211 7.582l.008 1.77c.027 4.162 1.96 7.558 4.299 7.546l24.933-9.406c2.34-.018 4.23-3.432 4.207-7.599l-.01-1.767c-.023-4.156-1.951-7.546-4.29-7.533L54.2 330.947" fill="#201e1d"/><path d="M54.216 333.612c-2.34.012-4.234 3.428-4.212 7.585l.012 1.771c.023 4.163 1.955 7.559 4.295 7.544l24.936-9.403c2.339-.017 4.228-3.436 4.204-7.594l-.01-1.771c-.022-4.16-1.95-7.555-4.288-7.543l-24.937 9.411" fill="#7d7e80"/><path d="M54.201 330.947c-2.339.016-4.235 3.424-4.211 7.582l.008 1.77c.027 4.162 1.96 7.558 4.299 7.546l24.933-9.406c2.34-.018 4.23-3.432 4.207-7.599l-.01-1.767c-.023-4.156-1.951-7.546-4.29-7.533L54.2 330.947" fill="#201e1d"/><path d="M514.787 150.183c-1.648 1.664-.571 5.42 2.386 8.344l1.256 1.245c2.96 2.927 6.73 3.961 8.378 2.296l10.977-24.284c1.643-1.664.564-5.415-2.393-8.341l-1.262-1.246c-2.957-2.924-6.718-3.964-8.362-2.297l-10.98 24.283" fill="#7d7e80"/><path d="M512.89 148.31c-1.642 1.667-.57 5.42 2.382 8.34l1.256 1.243c2.961 2.928 6.733 3.959 8.376 2.298l10.98-24.283c1.648-1.664.568-5.416-2.396-8.344l-1.256-1.244c-2.955-2.919-6.715-3.956-8.364-2.293l-10.979 24.284" fill="#201e1d"/><path d="M514.787 150.183c-1.648 1.664-.571 5.42 2.386 8.344l1.256 1.245c2.96 2.927 6.73 3.961 8.378 2.296l10.977-24.284c1.643-1.664.564-5.415-2.393-8.341l-1.262-1.246c-2.957-2.924-6.718-3.964-8.362-2.297l-10.98 24.283" fill="#7d7e80"/><path d="M512.89 148.31c-1.642 1.667-.57 5.42 2.382 8.34l1.256 1.243c2.961 2.928 6.733 3.959 8.376 2.298l10.98-24.283c1.648-1.664.568-5.416-2.396-8.344l-1.256-1.244c-2.955-2.919-6.715-3.956-8.364-2.293l-10.979 24.284" fill="#201e1d"/><path d="M136.105 533.125c-1.645 1.662-.57 5.419 2.388 8.344l1.256 1.246c2.96 2.924 6.728 3.956 8.372 2.292L159.1 520.72c1.65-1.658.57-5.413-2.39-8.338l-1.26-1.242c-2.957-2.924-6.72-3.965-8.365-2.3l-10.98 24.284" fill="#7d7e80"/><path d="M134.212 531.255c-1.646 1.66-.575 5.413 2.379 8.337l1.258 1.243c2.963 2.926 6.731 3.96 8.374 2.298l10.98-24.288c1.648-1.66.565-5.413-2.394-8.34l-1.257-1.241c-2.956-2.928-6.716-3.96-8.359-2.293l-10.981 24.284" fill="#201e1d"/><path d="M136.105 533.125c-1.645 1.662-.57 5.419 2.388 8.344l1.256 1.246c2.96 2.924 6.728 3.956 8.372 2.292L159.1 520.72c1.65-1.658.57-5.413-2.39-8.338l-1.26-1.242c-2.957-2.924-6.72-3.965-8.365-2.3l-10.98 24.284" fill="#7d7e80"/><path d="M134.212 531.255c-1.646 1.66-.575 5.413 2.379 8.337l1.258 1.243c2.963 2.926 6.731 3.96 8.374 2.298l10.98-24.288c1.648-1.66.565-5.413-2.394-8.34l-1.257-1.241c-2.956-2.928-6.716-3.96-8.359-2.293l-10.981 24.284" fill="#201e1d"/><path d="M520.333 513.31c-1.666-1.645-5.42-.57-8.344 2.389l-1.245 1.257c-2.927 2.955-3.96 6.73-2.299 8.372l24.287 10.98c1.664 1.643 5.415.565 8.341-2.392l1.246-1.264c2.924-2.955 3.961-6.716 2.297-8.361l-24.283-10.982" fill="#7d7e80"/><path d="M522.204 511.416c-1.664-1.641-5.415-.57-8.339 2.383l-1.242 1.257c-2.928 2.96-3.96 6.73-2.3 8.372l24.282 10.98c1.67 1.648 5.422.565 8.344-2.393l1.246-1.258c2.924-2.956 3.96-6.714 2.293-8.362l-24.284-10.979" fill="#201e1d"/><path d="M520.333 513.31c-1.666-1.645-5.42-.57-8.344 2.389l-1.245 1.257c-2.927 2.955-3.96 6.73-2.299 8.372l24.287 10.98c1.664 1.643 5.415.565 8.341-2.392l1.246-1.264c2.924-2.955 3.961-6.716 2.297-8.361l-24.283-10.982" fill="#7d7e80"/><path d="M522.204 511.416c-1.664-1.641-5.415-.57-8.339 2.383l-1.242 1.257c-2.928 2.96-3.96 6.73-2.3 8.372l24.282 10.98c1.67 1.648 5.422.565 8.344-2.393l1.246-1.258c2.924-2.956 3.96-6.714 2.293-8.362l-24.284-10.979" fill="#201e1d"/><path d="M137.39 134.63c-1.66-1.643-5.419-.569-8.343 2.387l-1.246 1.258c-2.923 2.958-3.956 6.729-2.294 8.372l24.285 10.98c1.661 1.648 5.412.566 8.341-2.391l1.243-1.26c2.925-2.956 3.963-6.72 2.3-8.367l-24.285-10.98" fill="#7d7e80"/><path d="M139.263 132.736c-1.664-1.643-5.415-.572-8.338 2.381l-1.244 1.263c-2.927 2.959-3.96 6.728-2.298 8.37l24.284 10.98c1.664 1.645 5.417.567 8.344-2.397l1.242-1.257c2.924-2.955 3.959-6.715 2.295-8.36l-24.285-10.98" fill="#201e1d"/><path d="M137.39 134.63c-1.66-1.643-5.419-.569-8.343 2.387l-1.246 1.258c-2.923 2.958-3.956 6.729-2.294 8.372l24.285 10.98c1.661 1.648 5.412.566 8.341-2.391l1.243-1.26c2.925-2.956 3.963-6.72 2.3-8.367l-24.285-10.98" fill="#7d7e80"/><path d="M139.263 132.736c-1.664-1.643-5.415-.572-8.338 2.381l-1.244 1.263c-2.927 2.959-3.96 6.728-2.298 8.37l24.284 10.98c1.664 1.645 5.417.567 8.344-2.397l1.242-1.257c2.924-2.955 3.959-6.715 2.295-8.36l-24.285-10.98" fill="#201e1d"/><path d="M429.313 95.279c-.876 2.168 1.574 5.213 5.432 6.762l1.64.658c3.866 1.552 7.742 1.04 8.614-1.132l.7-26.639c.876-2.17-1.579-5.212-5.44-6.759l-1.646-.661c-3.854-1.548-7.726-1.043-8.598 1.125l-.702 26.646" fill="#7d7e80"/><path d="M426.836 94.284c-.87 2.172 1.573 5.215 5.432 6.76l1.641.661c3.866 1.55 7.742 1.04 8.612-1.129l.702-26.639c.873-2.173-1.576-5.214-5.442-6.764l-1.641-.658c-3.859-1.548-7.725-1.048-8.596 1.125l-.708 26.644" fill="#201e1d"/><path d="M429.313 95.279c-.876 2.168 1.574 5.213 5.432 6.762l1.64.658c3.866 1.552 7.742 1.04 8.614-1.132l.7-26.639c.876-2.17-1.579-5.212-5.44-6.759l-1.646-.661c-3.854-1.548-7.726-1.043-8.598 1.125l-.702 26.646" fill="#7d7e80"/><path d="M426.836 94.284c-.87 2.172 1.573 5.215 5.432 6.76l1.641.661c3.866 1.55 7.742 1.04 8.612-1.129l.702-26.639c.873-2.173-1.576-5.214-5.442-6.764l-1.641-.658c-3.859-1.548-7.725-1.048-8.596 1.125l-.708 26.644" fill="#201e1d"/><path d="M228.763 595.1c-.87 2.17 1.577 5.213 5.436 6.763l1.644.66c3.857 1.552 7.736 1.042 8.608-1.13l.702-26.64c.872-2.176-1.58-5.216-5.444-6.762l-1.64-.662c-3.858-1.546-7.73-1.046-8.602 1.132l-.704 26.639" fill="#7d7e80"/><path d="M226.293 594.107c-.876 2.166 1.57 5.215 5.428 6.762l1.64.66c3.864 1.551 7.739 1.04 8.61-1.13l.702-26.646c.872-2.168-1.577-5.206-5.44-6.758l-1.641-.656c-3.859-1.55-7.725-1.044-8.599 1.13l-.7 26.638" fill="#201e1d"/><path d="M228.763 595.1c-.87 2.17 1.577 5.213 5.436 6.763l1.644.66c3.857 1.552 7.736 1.042 8.608-1.13l.702-26.64c.872-2.176-1.58-5.216-5.444-6.762l-1.64-.662c-3.858-1.546-7.73-1.046-8.602 1.132l-.704 26.639" fill="#7d7e80"/><path d="M226.293 594.107c-.876 2.166 1.57 5.215 5.428 6.762l1.64.66c3.864 1.551 7.739 1.04 8.61-1.13l.702-26.646c.872-2.168-1.577-5.206-5.44-6.758l-1.641-.656c-3.859-1.55-7.725-1.044-8.599 1.13l-.7 26.638" fill="#201e1d"/><path d="M575.24 427.84c-2.17-.876-5.216 1.573-6.767 5.43l-.658 1.645c-1.552 3.862-1.04 7.733 1.13 8.61l26.647.7c2.168.875 5.208-1.58 6.757-5.44l.659-1.646c1.552-3.856 1.047-7.728-1.127-8.6l-26.641-.699" fill="#7d7e80"/><path d="M576.23 425.361c-2.166-.868-5.213 1.574-6.76 5.434l-.66 1.64c-1.55 3.866-1.04 7.741 1.131 8.608l26.64.706c2.172.868 5.215-1.576 6.766-5.446l.657-1.642c1.547-3.854 1.041-7.724-1.132-8.59l-26.643-.71" fill="#201e1d"/><path d="M575.24 427.84c-2.17-.876-5.216 1.573-6.767 5.43l-.658 1.645c-1.552 3.862-1.04 7.733 1.13 8.61l26.647.7c2.168.875 5.208-1.58 6.757-5.44l.659-1.646c1.552-3.856 1.047-7.728-1.127-8.6l-26.641-.699" fill="#7d7e80"/><path d="M576.23 425.361c-2.166-.868-5.213 1.574-6.76 5.434l-.66 1.64c-1.55 3.866-1.04 7.741 1.131 8.608l26.64.706c2.172.868 5.215-1.576 6.766-5.446l.657-1.642c1.547-3.854 1.041-7.724-1.132-8.59l-26.643-.71" fill="#201e1d"/><path d="M75.416 227.29c-2.17-.875-5.217 1.577-6.762 5.433l-.663 1.648c-1.548 3.858-1.038 7.736 1.13 8.605l26.642.701c2.171.875 5.215-1.577 6.762-5.438l.659-1.643c1.549-3.861 1.047-7.732-1.127-8.604l-26.64-.701" fill="#7d7e80"/><path d="M76.407 224.816c-2.17-.872-5.212 1.57-6.762 5.43l-.659 1.64c-1.55 3.866-1.04 7.738 1.131 8.613l26.64.701c2.173.873 5.214-1.576 6.763-5.439l.657-1.644c1.55-3.858 1.045-7.728-1.126-8.594l-26.644-.707" fill="#201e1d"/><path d="M75.416 227.29c-2.17-.875-5.217 1.577-6.762 5.433l-.663 1.648c-1.548 3.858-1.038 7.736 1.13 8.605l26.642.701c2.171.875 5.215-1.577 6.762-5.438l.659-1.643c1.549-3.861 1.047-7.732-1.127-8.604l-26.64-.701" fill="#7d7e80"/><path d="M76.407 224.816c-2.17-.872-5.212 1.57-6.762 5.43l-.659 1.64c-1.55 3.866-1.04 7.738 1.131 8.613l26.64.701c2.173.873 5.214-1.576 6.763-5.439l.657-1.644c1.55-3.858 1.045-7.728-1.126-8.594l-26.644-.707" fill="#201e1d"/><path d="M571.147 231.33c-2.147.92-2.572 4.805-.939 8.629l.697 1.63c1.632 3.824 4.736 6.206 6.887 5.286l19.339-18.34c2.149-.919 2.565-4.802.932-8.627l-.698-1.63c-1.633-3.825-4.722-6.206-6.877-5.287l-19.341 18.34" fill="#7d7e80"/><path d="M570.103 228.885c-2.15.92-2.575 4.799-.94 8.622l.694 1.625c1.636 3.828 4.738 6.204 6.886 5.288l19.333-18.341c2.155-.922 2.573-4.802.94-8.63l-.697-1.624c-1.634-3.824-4.728-6.202-6.879-5.282l-19.337 18.342" fill="#201e1d"/><path d="M571.147 231.33c-2.147.92-2.572 4.805-.939 8.629l.697 1.63c1.632 3.824 4.736 6.206 6.887 5.286l19.339-18.34c2.149-.919 2.565-4.802.932-8.627l-.698-1.63c-1.633-3.825-4.722-6.206-6.877-5.287l-19.341 18.34" fill="#7d7e80"/><path d="M570.103 228.885c-2.15.92-2.575 4.799-.94 8.622l.694 1.625c1.636 3.828 4.738 6.204 6.886 5.288l19.333-18.341c2.155-.922 2.573-4.802.94-8.63l-.697-1.624c-1.634-3.824-4.728-6.202-6.879-5.282l-19.337 18.342" fill="#201e1d"/><path d="M75.914 442.952c-2.15.917-2.576 4.804-.94 8.63l.696 1.625c1.634 3.828 4.734 6.206 6.886 5.286l19.335-18.341c2.153-.919 2.568-4.8.935-8.625l-.694-1.626c-1.636-3.828-4.73-6.212-6.883-5.289l-19.335 18.34" fill="#7d7e80"/><path d="M74.87 440.505c-2.154.918-2.579 4.796-.945 8.619l.696 1.627c1.634 3.829 4.735 6.21 6.886 5.292l19.335-18.34c2.15-.922 2.571-4.806.933-8.636l-.694-1.624c-1.634-3.824-4.726-6.198-6.877-5.28L74.87 440.505" fill="#201e1d"/><path d="M75.914 442.952c-2.15.917-2.576 4.804-.94 8.63l.696 1.625c1.634 3.828 4.734 6.206 6.886 5.286l19.335-18.341c2.153-.919 2.568-4.8.935-8.625l-.694-1.626c-1.636-3.828-4.73-6.212-6.883-5.289l-19.335 18.34" fill="#7d7e80"/><path d="M74.87 440.505c-2.154.918-2.579 4.796-.945 8.619l.696 1.627c1.634 3.829 4.735 6.21 6.886 5.292l19.335-18.34c2.15-.922 2.571-4.806.933-8.636l-.694-1.624c-1.634-3.824-4.726-6.198-6.877-5.28L74.87 440.505" fill="#201e1d"/><path d="M439.184 569.673c-.921-2.146-4.804-2.573-8.63-.939l-1.625.697c-3.829 1.638-6.21 4.737-5.289 6.886l18.339 19.336c.921 2.152 4.808 2.567 8.63.932l1.631-.693c3.823-1.636 6.201-4.725 5.284-6.883l-18.34-19.336" fill="#7d7e80"/><path d="M441.63 568.63c-.915-2.151-4.798-2.577-8.62-.942l-1.629.696c-3.828 1.633-6.204 4.732-5.286 6.884l18.342 19.333c.919 2.158 4.802 2.575 8.63.935l1.626-.69c3.819-1.637 6.198-4.729 5.282-6.88L441.63 568.63" fill="#201e1d"/><path d="M439.184 569.673c-.921-2.146-4.804-2.573-8.63-.939l-1.625.697c-3.829 1.638-6.21 4.737-5.289 6.886l18.339 19.336c.921 2.152 4.808 2.567 8.63.932l1.631-.693c3.823-1.636 6.201-4.725 5.284-6.883l-18.34-19.336" fill="#7d7e80"/><path d="M441.63 568.63c-.915-2.151-4.798-2.577-8.62-.942l-1.629.696c-3.828 1.633-6.204 4.732-5.286 6.884l18.342 19.333c.919 2.158 4.802 2.575 8.63.935l1.626-.69c3.819-1.637 6.198-4.729 5.282-6.88L441.63 568.63" fill="#201e1d"/><path d="M227.561 74.437c-.918-2.15-4.802-2.573-8.626-.937l-1.63.693c-3.824 1.635-6.205 4.739-5.285 6.887l18.343 19.335c.917 2.156 4.801 2.57 8.626.937l1.628-.696c3.823-1.635 6.204-4.728 5.287-6.883l-18.343-19.336" fill="#7d7e80"/><path d="M230.01 73.393c-.918-2.15-4.798-2.578-8.62-.94l-1.626.695c-3.83 1.635-6.21 4.735-5.292 6.883l18.343 19.334c.917 2.154 4.801 2.574 8.632.935l1.624-.693c3.824-1.636 6.2-4.728 5.28-6.88l-18.34-19.334" fill="#201e1d"/><path d="M227.561 74.437c-.918-2.15-4.802-2.573-8.626-.937l-1.63.693c-3.824 1.635-6.205 4.739-5.285 6.887l18.343 19.335c.917 2.156 4.801 2.57 8.626.937l1.628-.696c3.823-1.635 6.204-4.728 5.287-6.883l-18.343-19.336" fill="#7d7e80"/><path d="M230.01 73.393c-.918-2.15-4.798-2.578-8.62-.94l-1.626.695c-3.83 1.635-6.21 4.735-5.292 6.883l18.343 19.334c.917 2.154 4.801 2.574 8.632.935l1.624-.693c3.824-1.636 6.2-4.728 5.28-6.88l-18.34-19.334" fill="#201e1d"/><path d="M400.001 85.827c-.605 2.26 2.188 4.988 6.21 6.064l1.706.458c4.019 1.078 7.806.106 8.411-2.15l-2.49-26.538c.606-2.258-2.197-4.985-6.213-6.058l-1.708-.459c-4.016-1.077-7.802-.113-8.408 2.15l2.492 26.533" fill="#7d7e80"/><path d="M397.424 85.136c-.597 2.261 2.19 4.988 6.207 6.067l1.705.457c4.021 1.073 7.807.105 8.415-2.15l-2.492-26.538c.608-2.259-2.195-4.987-6.21-6.061l-1.71-.456c-4.016-1.079-7.795-.115-8.403 2.15l2.488 26.531" fill="#201e1d"/><path d="M400.001 85.827c-.605 2.26 2.188 4.988 6.21 6.064l1.706.458c4.019 1.078 7.806.106 8.411-2.15l-2.49-26.538c.606-2.258-2.197-4.985-6.213-6.058l-1.708-.459c-4.016-1.077-7.802-.113-8.408 2.15l2.492 26.533" fill="#7d7e80"/><path d="M397.424 85.136c-.597 2.261 2.19 4.988 6.207 6.067l1.705.457c4.021 1.073 7.807.105 8.415-2.15l-2.492-26.538c.608-2.259-2.195-4.987-6.21-6.061l-1.71-.456c-4.016-1.079-7.795-.115-8.403 2.15l2.488 26.531" fill="#201e1d"/><path d="M260.727 606.061c-.604 2.26 2.189 4.992 6.206 6.068l1.711.456c4.017 1.074 7.804.11 8.41-2.152l-2.491-26.537c.606-2.256-2.191-4.982-6.211-6.059l-1.71-.46c-4.015-1.072-7.8-.11-8.405 2.152l2.49 26.532" fill="#7d7e80"/><path d="M258.152 605.373c-.605 2.259 2.187 4.99 6.204 6.066l1.705.456c4.023 1.076 7.807.105 8.411-2.15l-2.488-26.54c.605-2.26-2.192-4.985-6.215-6.057l-1.702-.46c-4.019-1.078-7.798-.11-8.4 2.15l2.485 26.535" fill="#201e1d"/><path d="M260.727 606.061c-.604 2.26 2.189 4.992 6.206 6.068l1.711.456c4.017 1.074 7.804.11 8.41-2.152l-2.491-26.537c.606-2.256-2.191-4.982-6.211-6.059l-1.71-.46c-4.015-1.072-7.8-.11-8.405 2.152l2.49 26.532" fill="#7d7e80"/><path d="M258.152 605.373c-.605 2.259 2.187 4.99 6.204 6.066l1.705.456c4.023 1.076 7.807.105 8.411-2.15l-2.488-26.54c.605-2.26-2.192-4.985-6.215-6.057l-1.702-.46c-4.019-1.078-7.798-.11-8.4 2.15l2.485 26.535" fill="#201e1d"/><path d="M584.688 398.525c-2.261-.604-4.99 2.19-6.065 6.207l-.456 1.71c-1.076 4.02-.106 7.805 2.153 8.413l26.533-2.491c2.26.605 4.984-2.193 6.064-6.213l.456-1.708c1.075-4.019.112-7.803-2.148-8.408l-26.537 2.49" fill="#7d7e80"/><path d="M585.376 395.952c-2.255-.604-4.985 2.187-6.065 6.201l-.45 1.708c-1.081 4.022-.11 7.808 2.15 8.412l26.53-2.488c2.262.603 4.987-2.193 6.063-6.214l.459-1.707c1.076-4.015.112-7.793-2.147-8.401l-26.54 2.489" fill="#201e1d"/><path d="M584.688 398.525c-2.261-.604-4.99 2.19-6.065 6.207l-.456 1.71c-1.076 4.02-.106 7.805 2.153 8.413l26.533-2.491c2.26.605 4.984-2.193 6.064-6.213l.456-1.708c1.075-4.019.112-7.803-2.148-8.408l-26.537 2.49" fill="#7d7e80"/><path d="M585.376 395.952c-2.255-.604-4.985 2.187-6.065 6.201l-.45 1.708c-1.081 4.022-.11 7.808 2.15 8.412l26.53-2.488c2.262.603 4.987-2.193 6.063-6.214l.459-1.707c1.076-4.015.112-7.793-2.147-8.401l-26.54 2.489" fill="#201e1d"/><path d="M64.454 259.255c-2.26-.608-4.99 2.188-6.067 6.205l-.458 1.71c-1.075 4.018-.104 7.803 2.152 8.407l26.537-2.489c2.26.605 4.985-2.19 6.06-6.212l.46-1.71c1.073-4.017.113-7.803-2.15-8.406l-26.534 2.495" fill="#7d7e80"/><path d="M65.142 256.676c-2.258-.603-4.988 2.188-6.063 6.204l-.458 1.71c-1.075 4.022-.107 7.803 2.152 8.407l26.534-2.486c2.26.605 4.985-2.194 6.063-6.215l.455-1.707c1.078-4.014.113-7.794-2.145-8.397l-26.538 2.484" fill="#201e1d"/><path d="M64.454 259.255c-2.26-.608-4.99 2.188-6.067 6.205l-.458 1.71c-1.075 4.018-.104 7.803 2.152 8.407l26.537-2.489c2.26.605 4.985-2.19 6.06-6.212l.46-1.71c1.073-4.017.113-7.803-2.15-8.406l-26.534 2.495" fill="#7d7e80"/><path d="M65.142 256.676c-2.258-.603-4.988 2.188-6.063 6.204l-.458 1.71c-1.075 4.022-.107 7.803 2.152 8.407l26.534-2.486c2.26.605 4.985-2.194 6.063-6.215l.455-1.707c1.078-4.014.113-7.794-2.145-8.397l-26.538 2.484" fill="#201e1d"/><path d="M557.11 203.927c-2.03 1.165-1.98 5.073.095 8.677l.887 1.532c2.083 3.603 5.445 5.596 7.47 4.428l17-20.525c2.029-1.174 1.975-5.074-.102-8.68l-.888-1.534c-2.081-3.598-5.439-5.593-7.463-4.424l-16.998 20.526" fill="#7d7e80"/><path d="M555.776 201.621c-2.024 1.167-1.987 5.072.096 8.672l.885 1.528c2.083 3.608 5.443 5.6 7.47 4.431l17.001-20.527c2.028-1.17 1.975-5.072-.105-8.677l-.883-1.533c-2.084-3.6-5.435-5.591-7.464-4.42l-17 20.526" fill="#201e1d"/><path d="M557.11 203.927c-2.03 1.165-1.98 5.073.095 8.677l.887 1.532c2.083 3.603 5.445 5.596 7.47 4.428l17-20.525c2.029-1.174 1.975-5.074-.102-8.68l-.888-1.534c-2.081-3.598-5.439-5.593-7.463-4.424l-16.998 20.526" fill="#7d7e80"/><path d="M555.776 201.621c-2.024 1.167-1.987 5.072.096 8.672l.885 1.528c2.083 3.608 5.443 5.6 7.47 4.431l17.001-20.527c2.028-1.17 1.975-5.072-.105-8.677l-.883-1.533c-2.084-3.6-5.435-5.591-7.464-4.42l-17 20.526" fill="#201e1d"/><path d="M90.764 473.305c-2.027 1.17-1.982 5.08.1 8.68l.884 1.528c2.08 3.604 5.444 5.598 7.47 4.43l17-20.526c2.029-1.168 1.975-5.073-.104-8.674l-.887-1.538c-2.08-3.598-5.436-5.594-7.464-4.425l-16.999 20.525" fill="#7d7e80"/><path d="M89.432 471.003c-2.024 1.169-1.984 5.069.096 8.669l.883 1.527c2.085 3.609 5.446 5.601 7.472 4.433l17-20.527c2.027-1.17 1.977-5.073-.104-8.677l-.886-1.53c-2.08-3.605-5.434-5.593-7.458-4.423l-17.003 20.528" fill="#201e1d"/><path d="M90.764 473.305c-2.027 1.17-1.982 5.08.1 8.68l.884 1.528c2.08 3.604 5.444 5.598 7.47 4.43l17-20.526c2.029-1.168 1.975-5.073-.104-8.674l-.887-1.538c-2.08-3.598-5.436-5.594-7.464-4.425l-16.999 20.525" fill="#7d7e80"/><path d="M89.432 471.003c-2.024 1.169-1.984 5.069.096 8.669l.883 1.527c2.085 3.609 5.446 5.601 7.472 4.433l17-20.527c2.027-1.17 1.977-5.073-.104-8.677l-.886-1.53c-2.08-3.605-5.434-5.593-7.458-4.423l-17.003 20.528" fill="#201e1d"/><path d="M466.59 555.635c-1.17-2.03-5.077-1.986-8.675.096l-1.535.888c-3.604 2.078-5.599 5.445-4.425 7.467l20.521 17c1.17 2.031 5.075 1.978 8.679-.1l1.533-.889c3.599-2.08 5.6-5.438 4.424-7.461l-20.523-17.001" fill="#7d7e80"/><path d="M468.896 554.303c-1.17-2.03-5.072-1.988-8.673.093l-1.531.888c-3.603 2.081-5.599 5.438-4.424 7.47l20.525 17c1.166 2.026 5.074 1.975 8.676-.109l1.53-.882c3.601-2.08 5.593-5.432 4.42-7.461l-20.523-17" fill="#201e1d"/><path d="M466.59 555.635c-1.17-2.03-5.077-1.986-8.675.096l-1.535.888c-3.604 2.078-5.599 5.445-4.425 7.467l20.521 17c1.17 2.031 5.075 1.978 8.679-.1l1.533-.889c3.599-2.08 5.6-5.438 4.424-7.461l-20.523-17.001" fill="#7d7e80"/><path d="M468.896 554.303c-1.17-2.03-5.072-1.988-8.673.093l-1.531.888c-3.603 2.081-5.599 5.438-4.424 7.47l20.525 17c1.166 2.026 5.074 1.975 8.676-.109l1.53-.882c3.601-2.08 5.593-5.432 4.42-7.461l-20.523-17" fill="#201e1d"/><path d="M197.208 89.29c-1.168-2.023-5.075-1.982-8.676.098l-1.532.888c-3.604 2.081-5.595 5.441-4.424 7.465l20.524 17.003c1.167 2.027 5.072 1.975 8.676-.108l1.53-.885c3.603-2.078 5.597-5.434 4.427-7.466l-20.525-16.994" fill="#7d7e80"/><path d="M199.513 87.956c-1.166-2.021-5.069-1.983-8.67.099l-1.532.882c-3.604 2.084-5.598 5.446-4.424 7.47l20.524 17.002c1.17 2.024 5.072 1.974 8.676-.106l1.532-.887c3.598-2.077 5.592-5.433 4.418-7.457l-20.524-17.003" fill="#201e1d"/><path d="M197.208 89.29c-1.168-2.023-5.075-1.982-8.676.098l-1.532.888c-3.604 2.081-5.595 5.441-4.424 7.465l20.524 17.003c1.167 2.027 5.072 1.975 8.676-.108l1.53-.885c3.603-2.078 5.597-5.434 4.427-7.466l-20.525-16.994" fill="#7d7e80"/><path d="M199.513 87.956c-1.166-2.021-5.069-1.983-8.67.099l-1.532.882c-3.604 2.084-5.598 5.446-4.424 7.47l20.524 17.002c1.17 2.024 5.072 1.974 8.676-.106l1.532-.887c3.598-2.077 5.592-5.433 4.418-7.457l-20.524-17.003" fill="#201e1d"/><path d="M489.161 128.399c-1.416 1.864.146 5.449 3.46 7.962l1.411 1.071c3.315 2.51 7.19 3.044 8.599 1.181l7.71-25.512c1.416-1.865-.145-5.442-3.458-7.958l-1.412-1.066c-3.312-2.514-7.18-3.052-8.599-1.186l-7.71 25.508" fill="#7d7e80"/><path d="M487.041 126.79c-1.417 1.865.139 5.446 3.451 7.958l1.41 1.068c3.318 2.517 7.185 3.045 8.605 1.183l7.709-25.51c1.41-1.865-.148-5.446-3.465-7.961l-1.407-1.067c-3.319-2.512-7.176-3.044-8.592-1.178l-7.71 25.508" fill="#201e1d"/><path d="M489.161 128.399c-1.416 1.864.146 5.449 3.46 7.962l1.411 1.071c3.315 2.51 7.19 3.044 8.599 1.181l7.71-25.512c1.416-1.865-.145-5.442-3.458-7.958l-1.412-1.066c-3.312-2.514-7.18-3.052-8.599-1.186l-7.71 25.508" fill="#7d7e80"/><path d="M487.041 126.79c-1.417 1.865.139 5.446 3.451 7.958l1.41 1.068c3.318 2.517 7.185 3.045 8.605 1.183l7.709-25.51c1.41-1.865-.148-5.446-3.465-7.961l-1.407-1.067c-3.319-2.512-7.176-3.044-8.592-1.178l-7.71 25.508" fill="#201e1d"/><path d="M163.77 557.544c-1.409 1.865.146 5.448 3.462 7.96l1.408 1.07c3.316 2.51 7.188 3.043 8.603 1.182l7.712-25.51c1.41-1.869-.15-5.446-3.467-7.957l-1.408-1.07c-3.313-2.514-7.183-3.048-8.595-1.186l-7.714 25.51" fill="#7d7e80"/><path d="M161.65 555.936c-1.413 1.862.14 5.445 3.453 7.953l1.409 1.074c3.316 2.51 7.188 3.045 8.601 1.178l7.712-25.506c1.415-1.866-.146-5.446-3.464-7.962l-1.406-1.068c-3.316-2.514-7.178-3.042-8.594-1.18l-7.71 25.511" fill="#201e1d"/><path d="M163.77 557.544c-1.409 1.865.146 5.448 3.462 7.96l1.408 1.07c3.316 2.51 7.188 3.043 8.603 1.182l7.712-25.51c1.41-1.869-.15-5.446-3.467-7.957l-1.408-1.07c-3.313-2.514-7.183-3.048-8.595-1.186l-7.714 25.51" fill="#7d7e80"/><path d="M161.65 555.936c-1.413 1.862.14 5.445 3.453 7.953l1.409 1.074c3.316 2.51 7.188 3.045 8.601 1.178l7.712-25.506c1.415-1.866-.146-5.446-3.464-7.962l-1.406-1.068c-3.316-2.514-7.178-3.042-8.594-1.18l-7.71 25.511" fill="#201e1d"/><path d="M542.115 487.685c-1.864-1.409-5.446.146-7.963 3.462l-1.068 1.406c-2.512 3.316-3.04 7.191-1.177 8.604l25.51 7.71c1.863 1.414 5.444-.147 7.952-3.463l1.074-1.408c2.513-3.31 3.048-7.183 1.185-8.597l-25.513-7.714" fill="#7d7e80"/><path d="M543.723 485.564c-1.86-1.41-5.446.139-7.954 3.456l-1.065 1.404c-2.519 3.323-3.05 7.19-1.187 8.605l25.511 7.714c1.864 1.409 5.443-.148 7.956-3.468l1.067-1.408c2.514-3.311 3.052-7.174 1.185-8.588l-25.513-7.715" fill="#201e1d"/><path d="M542.115 487.685c-1.864-1.409-5.446.146-7.963 3.462l-1.068 1.406c-2.512 3.316-3.04 7.191-1.177 8.604l25.51 7.71c1.863 1.414 5.444-.147 7.952-3.463l1.074-1.408c2.513-3.31 3.048-7.183 1.185-8.597l-25.513-7.714" fill="#7d7e80"/><path d="M543.723 485.564c-1.86-1.41-5.446.139-7.954 3.456l-1.065 1.404c-2.519 3.323-3.05 7.19-1.187 8.605l25.511 7.714c1.864 1.409 5.443-.148 7.956-3.468l1.067-1.408c2.514-3.311 3.052-7.174 1.185-8.588l-25.513-7.715" fill="#201e1d"/><path d="M112.972 162.297c-1.863-1.409-5.446.147-7.96 3.46l-1.069 1.408c-2.514 3.316-3.05 7.191-1.182 8.6l25.507 7.714c1.868 1.413 5.447-.147 7.959-3.464l1.069-1.407c2.513-3.315 3.052-7.183 1.188-8.599l-25.512-7.712" fill="#7d7e80"/><path d="M114.58 160.177c-1.86-1.417-5.444.138-7.954 3.452l-1.07 1.408c-2.515 3.318-3.048 7.19-1.185 8.602l25.513 7.713c1.862 1.41 5.443-.145 7.959-3.467l1.068-1.406c2.51-3.314 3.045-7.175 1.178-8.59l-25.509-7.712" fill="#201e1d"/><path d="M112.972 162.297c-1.863-1.409-5.446.147-7.96 3.46l-1.069 1.408c-2.514 3.316-3.05 7.191-1.182 8.6l25.507 7.714c1.868 1.413 5.447-.147 7.959-3.464l1.069-1.407c2.513-3.315 3.052-7.183 1.188-8.599l-25.512-7.712" fill="#7d7e80"/><path d="M114.58 160.177c-1.86-1.417-5.444.138-7.954 3.452l-1.07 1.408c-2.515 3.318-3.048 7.19-1.185 8.602l25.513 7.713c1.862 1.41 5.443-.145 7.959-3.467l1.068-1.406c2.51-3.314 3.045-7.175 1.178-8.59l-25.509-7.712" fill="#201e1d"/><path d="M590.05 297.077c-2.318.32-3.75 3.952-3.186 8.072l.241 1.756c.571 4.12 2.931 7.235 5.251 6.918l23.49-12.583c2.318-.323 3.742-3.957 3.174-8.075l-.236-1.756c-.568-4.125-2.923-7.236-5.243-6.92l-23.49 12.588" fill="#7d7e80"/><path d="M589.687 294.439c-2.32.317-3.752 3.946-3.187 8.068l.244 1.749c.567 4.124 2.928 7.239 5.247 6.919l23.493-12.586c2.316-.317 3.74-3.95 3.173-8.074l-.238-1.754c-.567-4.121-2.923-7.229-5.239-6.908l-23.493 12.586" fill="#201e1d"/><path d="M590.05 297.077c-2.318.32-3.75 3.952-3.186 8.072l.241 1.756c.571 4.12 2.931 7.235 5.251 6.918l23.49-12.583c2.318-.323 3.742-3.957 3.174-8.075l-.236-1.756c-.568-4.125-2.923-7.236-5.243-6.92l-23.49 12.588" fill="#7d7e80"/><path d="M589.687 294.439c-2.32.317-3.752 3.946-3.187 8.068l.244 1.749c.567 4.124 2.928 7.239 5.247 6.919l23.493-12.586c2.316-.317 3.74-3.95 3.173-8.074l-.238-1.754c-.567-4.121-2.923-7.229-5.239-6.908l-23.493 12.586" fill="#201e1d"/><path d="M56.515 370.443c-2.318.318-3.751 3.954-3.185 8.076l.24 1.748c.57 4.125 2.932 7.24 5.245 6.92L82.31 374.6c2.315-.316 3.745-3.954 3.177-8.074l-.24-1.754c-.568-4.121-2.922-7.236-5.241-6.914l-23.49 12.584" fill="#7d7e80"/><path d="M56.153 367.807c-2.318.318-3.754 3.945-3.188 8.065l.24 1.752c.568 4.125 2.93 7.237 5.248 6.919l23.493-12.587c2.316-.32 3.744-3.952 3.179-8.076l-.244-1.755c-.563-4.118-2.918-7.226-5.237-6.904l-23.49 12.586" fill="#201e1d"/><path d="M56.515 370.443c-2.318.318-3.751 3.954-3.185 8.076l.24 1.748c.57 4.125 2.932 7.24 5.245 6.92L82.31 374.6c2.315-.316 3.745-3.954 3.177-8.074l-.24-1.754c-.568-4.121-2.922-7.236-5.241-6.914l-23.49 12.584" fill="#7d7e80"/><path d="M56.153 367.807c-2.318.318-3.754 3.945-3.188 8.065l.24 1.752c.568 4.125 2.93 7.237 5.248 6.919l23.493-12.587c2.316-.32 3.744-3.952 3.179-8.076l-.244-1.755c-.563-4.118-2.918-7.226-5.237-6.904l-23.49 12.586" fill="#201e1d"/><path d="M373.436 588.575c-.315-2.318-3.952-3.755-8.07-3.186l-1.755.243c-4.119.566-7.236 2.93-6.92 5.244l12.59 23.496c.318 2.317 3.95 3.743 8.075 3.172l1.753-.237c4.12-.567 7.236-2.923 6.916-5.24l-12.589-23.492" fill="#7d7e80"/><path d="M376.08 588.212c-.321-2.319-3.952-3.753-8.07-3.184l-1.749.239c-4.124.57-7.24 2.93-6.92 5.242l12.58 23.496c.322 2.32 3.96 3.746 8.08 3.176l1.752-.236c4.119-.568 7.227-2.923 6.907-5.242l-12.58-23.491" fill="#201e1d"/><path d="M373.436 588.575c-.315-2.318-3.952-3.755-8.07-3.186l-1.755.243c-4.119.566-7.236 2.93-6.92 5.244l12.59 23.496c.318 2.317 3.95 3.743 8.075 3.172l1.753-.237c4.12-.567 7.236-2.923 6.916-5.24l-12.589-23.492" fill="#7d7e80"/><path d="M376.08 588.212c-.321-2.319-3.952-3.753-8.07-3.184l-1.749.239c-4.124.57-7.24 2.93-6.92 5.242l12.58 23.496c.322 2.32 3.96 3.746 8.08 3.176l1.752-.236c4.119-.568 7.227-2.923 6.907-5.242l-12.58-23.491" fill="#201e1d"/><path d="M300.073 55.041c-.32-2.318-3.953-3.752-8.07-3.182l-1.755.234c-4.121.568-7.239 2.932-6.921 5.248l12.588 23.492c.317 2.318 3.953 3.748 8.074 3.18l1.754-.244c4.12-.566 7.233-2.92 6.914-5.238l-12.584-23.49" fill="#7d7e80"/><path d="M302.71 54.679c-.32-2.316-3.947-3.754-8.065-3.188l-1.752.238c-4.126.571-7.24 2.931-6.92 5.25l12.587 23.49c.316 2.319 3.95 3.75 8.076 3.179l1.752-.24c4.12-.567 7.227-2.92 6.91-5.236L302.71 54.679" fill="#201e1d"/><path d="M300.073 55.041c-.32-2.318-3.953-3.752-8.07-3.182l-1.755.234c-4.121.568-7.239 2.932-6.921 5.248l12.588 23.492c.317 2.318 3.953 3.748 8.074 3.18l1.754-.244c4.12-.566 7.233-2.92 6.914-5.238l-12.584-23.49" fill="#7d7e80"/><path d="M302.71 54.679c-.32-2.316-3.947-3.754-8.065-3.188l-1.752.238c-4.126.571-7.24 2.931-6.92 5.25l12.587 23.49c.316 2.319 3.95 3.75 8.076 3.179l1.752-.24c4.12-.567 7.227-2.92 6.91-5.236L302.71 54.679" fill="#201e1d"/><path d="M366.401 79.528c-.301 2.32 2.836 4.655 6.959 5.188l1.755.23c4.125.53 7.749-.935 8.049-3.254l-5.993-25.968c.3-2.321-2.835-4.65-6.963-5.181l-1.755-.23c-4.12-.53-7.748.926-8.046 3.247l5.994 25.968" fill="#7d7e80"/><path d="M363.76 79.185c-.299 2.32 2.825 4.655 6.948 5.187l1.759.228c4.129.532 7.749-.93 8.049-3.25l-5.992-25.967c.3-2.322-2.837-4.65-6.961-5.184l-1.756-.227c-4.124-.533-7.738.925-8.039 3.247l5.992 25.966" fill="#201e1d"/><path d="M366.401 79.528c-.301 2.32 2.836 4.655 6.959 5.188l1.755.23c4.125.53 7.749-.935 8.049-3.254l-5.993-25.968c.3-2.321-2.835-4.65-6.963-5.181l-1.755-.23c-4.12-.53-7.748.926-8.046 3.247l5.994 25.968" fill="#7d7e80"/><path d="M363.76 79.185c-.299 2.32 2.825 4.655 6.948 5.187l1.759.228c4.129.532 7.749-.93 8.049-3.25l-5.992-25.967c.3-2.322-2.837-4.65-6.961-5.184l-1.756-.227c-4.124-.533-7.738.925-8.039 3.247l5.992 25.966" fill="#201e1d"/><path d="M297.457 613.65c-.297 2.322 2.838 4.66 6.96 5.191l1.755.227c4.128.532 7.75-.932 8.052-3.25l-5.995-25.97c.302-2.32-2.833-4.652-6.96-5.184l-1.754-.227c-4.127-.528-7.75.926-8.046 3.247l5.988 25.965" fill="#7d7e80"/><path d="M294.817 613.313c-.297 2.316 2.828 4.654 6.952 5.182l1.756.232c4.127.532 7.75-.932 8.05-3.252l-5.991-25.968c.299-2.323-2.837-4.651-6.963-5.185l-1.756-.226c-4.121-.532-7.737.926-8.04 3.247l5.992 25.97" fill="#201e1d"/><path d="M297.457 613.65c-.297 2.322 2.838 4.66 6.96 5.191l1.755.227c4.128.532 7.75-.932 8.052-3.25l-5.995-25.97c.302-2.32-2.833-4.652-6.96-5.184l-1.754-.227c-4.127-.528-7.75.926-8.046 3.247l5.988 25.965" fill="#7d7e80"/><path d="M294.817 613.313c-.297 2.316 2.828 4.654 6.952 5.182l1.756.232c4.127.532 7.75-.932 8.05-3.252l-5.991-25.968c.299-2.323-2.837-4.651-6.963-5.185l-1.756-.226c-4.121-.532-7.737.926-8.04 3.247l5.992 25.97" fill="#201e1d"/><path d="M590.988 364.927c-2.321-.3-4.653 2.83-5.188 6.958l-.224 1.755c-.537 4.125.932 7.75 3.248 8.05l25.97-5.994c2.32.3 4.646-2.835 5.182-6.961l.224-1.756c.536-4.119-.923-7.747-3.244-8.047l-25.968 5.995" fill="#7d7e80"/><path d="M591.327 362.284c-2.319-.299-4.654 2.828-5.184 6.95l-.226 1.754c-.534 4.135.927 7.757 3.246 8.053l25.973-5.994c2.32.3 4.648-2.835 5.183-6.963l.226-1.75c.53-4.126-.929-7.74-3.249-8.04l-25.97 5.99" fill="#201e1d"/><path d="M590.988 364.927c-2.321-.3-4.653 2.83-5.188 6.958l-.224 1.755c-.537 4.125.932 7.75 3.248 8.05l25.97-5.994c2.32.3 4.646-2.835 5.182-6.961l.224-1.756c.536-4.119-.923-7.747-3.244-8.047l-25.968 5.995" fill="#7d7e80"/><path d="M591.327 362.284c-2.319-.299-4.654 2.828-5.184 6.95l-.226 1.754c-.534 4.135.927 7.757 3.246 8.053l25.973-5.994c2.32.3 4.648-2.835 5.183-6.963l.226-1.75c.53-4.126-.929-7.74-3.249-8.04l-25.97 5.99" fill="#201e1d"/><path d="M56.864 295.985c-2.322-.298-4.656 2.831-5.19 6.959l-.226 1.755c-.533 4.125.933 7.749 3.25 8.052l25.97-5.996c2.32.3 4.648-2.835 5.18-6.964l.23-1.754c.53-4.12-.925-7.745-3.246-8.046l-25.968 5.994" fill="#7d7e80"/><path d="M57.203 293.343c-2.317-.298-4.654 2.826-5.187 6.952l-.224 1.756c-.535 4.126.93 7.75 3.245 8.049l25.97-5.99c2.325.297 4.65-2.838 5.186-6.963l.226-1.755c.533-4.123-.927-7.736-3.246-8.037l-25.97 5.988" fill="#201e1d"/><path d="M56.864 295.985c-2.322-.298-4.656 2.831-5.19 6.959l-.226 1.755c-.533 4.125.933 7.749 3.25 8.052l25.97-5.996c2.32.3 4.648-2.835 5.18-6.964l.23-1.754c.53-4.12-.925-7.745-3.246-8.046l-25.968 5.994" fill="#7d7e80"/><path d="M57.203 293.343c-2.317-.298-4.654 2.826-5.187 6.952l-.224 1.756c-.535 4.126.93 7.75 3.245 8.049l25.97-5.99c2.325.297 4.65-2.838 5.186-6.963l.226-1.755c.533-4.123-.927-7.736-3.246-8.037l-25.97 5.988" fill="#201e1d"/><path d="M537.804 175.717c-1.85 1.423-1.29 5.291 1.252 8.584l1.08 1.402c2.54 3.294 6.139 4.822 7.993 3.397l14.123-22.603c1.853-1.429 1.285-5.292-1.263-8.585l-1.076-1.405c-2.541-3.29-6.133-4.823-7.986-3.394l-14.123 22.604" fill="#7d7e80"/><path d="M536.176 173.607c-1.85 1.425-1.29 5.288 1.245 8.581l1.083 1.403c2.54 3.29 6.137 4.821 7.988 3.39l14.13-22.597c1.85-1.428 1.282-5.292-1.26-8.584l-1.08-1.405c-2.538-3.296-6.126-4.819-7.977-3.392l-14.129 22.604" fill="#201e1d"/><path d="M537.804 175.717c-1.85 1.423-1.29 5.291 1.252 8.584l1.08 1.402c2.54 3.294 6.139 4.822 7.993 3.397l14.123-22.603c1.853-1.429 1.285-5.292-1.263-8.585l-1.076-1.405c-2.541-3.29-6.133-4.823-7.986-3.394l-14.123 22.604" fill="#7d7e80"/><path d="M536.176 173.607c-1.85 1.425-1.29 5.288 1.245 8.581l1.083 1.403c2.54 3.29 6.137 4.821 7.988 3.39l14.13-22.597c1.85-1.428 1.282-5.292-1.26-8.584l-1.08-1.405c-2.538-3.296-6.126-4.819-7.977-3.392l-14.129 22.604" fill="#201e1d"/><path d="M111.369 504.648c-1.849 1.432-1.286 5.295 1.252 8.59l1.08 1.398c2.543 3.297 6.14 4.824 7.993 3.395l14.123-22.6c1.855-1.428 1.284-5.294-1.257-8.587l-1.08-1.403c-2.54-3.29-6.133-4.821-7.985-3.396l-14.126 22.603" fill="#7d7e80"/><path d="M109.742 502.54c-1.849 1.432-1.29 5.29 1.25 8.58l1.078 1.403c2.545 3.292 6.143 4.821 7.99 3.394l14.127-22.602c1.85-1.427 1.286-5.287-1.257-8.583l-1.081-1.403c-2.538-3.293-6.128-4.82-7.98-3.389l-14.127 22.6" fill="#201e1d"/><path d="M111.369 504.648c-1.849 1.432-1.286 5.295 1.252 8.59l1.08 1.398c2.543 3.297 6.14 4.824 7.993 3.395l14.123-22.6c1.855-1.428 1.284-5.294-1.257-8.587l-1.08-1.403c-2.54-3.29-6.133-4.821-7.985-3.396l-14.126 22.603" fill="#7d7e80"/><path d="M109.742 502.54c-1.849 1.432-1.29 5.29 1.25 8.58l1.078 1.403c2.545 3.292 6.143 4.821 7.99 3.394l14.127-22.602c1.85-1.427 1.286-5.287-1.257-8.583l-1.081-1.403c-2.538-3.293-6.128-4.82-7.98-3.389l-14.127 22.6" fill="#201e1d"/><path d="M494.8 536.332c-1.427-1.857-5.295-1.293-8.588 1.243l-1.397 1.086c-3.295 2.54-4.83 6.139-3.398 7.991l22.6 14.124c1.43 1.856 5.295 1.285 8.588-1.26l1.402-1.08c3.294-2.54 4.825-6.132 3.397-7.985L494.8 536.33" fill="#7d7e80"/><path d="M496.912 534.7c-1.43-1.85-5.292-1.29-8.583 1.248l-1.402 1.079c-3.295 2.544-4.819 6.141-3.399 7.992l22.604 14.127c1.433 1.851 5.288 1.283 8.59-1.257l1.397-1.082c3.296-2.538 4.818-6.124 3.392-7.982L496.912 534.7" fill="#201e1d"/><path d="M494.8 536.332c-1.427-1.857-5.295-1.293-8.588 1.243l-1.397 1.086c-3.295 2.54-4.83 6.139-3.398 7.991l22.6 14.124c1.43 1.856 5.295 1.285 8.588-1.26l1.402-1.08c3.294-2.54 4.825-6.132 3.397-7.985L494.8 536.33" fill="#7d7e80"/><path d="M496.912 534.7c-1.43-1.85-5.292-1.29-8.583 1.248l-1.402 1.079c-3.295 2.544-4.819 6.141-3.399 7.992l22.604 14.127c1.433 1.851 5.288 1.283 8.59-1.257l1.397-1.082c3.296-2.538 4.818-6.124 3.392-7.982L496.912 534.7" fill="#201e1d"/><path d="M165.867 109.893c-1.428-1.852-5.296-1.286-8.59 1.255l-1.397 1.081c-3.296 2.542-4.827 6.138-3.399 7.99l22.603 14.122c1.43 1.854 5.292 1.284 8.588-1.257l1.403-1.077c3.292-2.54 4.821-6.135 3.393-7.986l-22.601-14.128" fill="#7d7e80"/><path d="M167.972 108.268c-1.425-1.852-5.285-1.293-8.579 1.248l-1.4 1.08c-3.296 2.545-4.821 6.14-3.396 7.99l22.6 14.129c1.431 1.85 5.292 1.284 8.59-1.262l1.4-1.077c3.292-2.541 4.82-6.128 3.389-7.984l-22.604-14.124" fill="#201e1d"/><path d="M165.867 109.893c-1.428-1.852-5.296-1.286-8.59 1.255l-1.397 1.081c-3.296 2.542-4.827 6.138-3.399 7.99l22.603 14.122c1.43 1.854 5.292 1.284 8.588-1.257l1.403-1.077c3.292-2.54 4.821-6.135 3.393-7.986l-22.601-14.128" fill="#7d7e80"/><path d="M167.972 108.268c-1.425-1.852-5.285-1.293-8.579 1.248l-1.4 1.08c-3.296 2.545-4.821 6.14-3.396 7.99l22.6 14.129c1.431 1.85 5.292 1.284 8.59-1.262l1.4-1.077c3.292-2.541 4.82-6.128 3.389-7.984l-22.604-14.124" fill="#201e1d"/><path d="M460.428 109.885c-1.155 2.031.868 5.376 4.481 7.426l1.543.874c3.623 2.05 7.527 2.066 8.683.032l4.253-26.314c1.153-2.034-.87-5.376-4.488-7.426l-1.539-.868c-3.618-2.052-7.524-2.073-8.678-.036l-4.255 26.312" fill="#7d7e80"/><path d="M458.11 108.572c-1.151 2.033.862 5.376 4.482 7.423l1.532.876c3.625 2.052 7.532 2.061 8.684.028l4.257-26.312c1.154-2.032-.87-5.372-4.488-7.423l-1.538-.873c-3.622-2.05-7.52-2.064-8.671-.034l-4.259 26.315" fill="#201e1d"/><path d="M460.428 109.885c-1.155 2.031.868 5.376 4.481 7.426l1.543.874c3.623 2.05 7.527 2.066 8.683.032l4.253-26.314c1.153-2.034-.87-5.376-4.488-7.426l-1.539-.868c-3.618-2.052-7.524-2.073-8.678-.036l-4.255 26.312" fill="#7d7e80"/><path d="M458.11 108.572c-1.151 2.033.862 5.376 4.482 7.423l1.532.876c3.625 2.052 7.532 2.061 8.684.028l4.257-26.312c1.154-2.032-.87-5.372-4.488-7.423l-1.538-.873c-3.622-2.05-7.52-2.064-8.671-.034l-4.259 26.315" fill="#201e1d"/><path d="M194.92 578.44c-1.152 2.037.868 5.377 4.488 7.432l1.537.87c3.622 2.056 7.528 2.067 8.683.033l4.256-26.307c1.152-2.036-.87-5.376-4.49-7.43l-1.542-.873c-3.615-2.046-7.521-2.07-8.676-.032l-4.256 26.307" fill="#7d7e80"/><path d="M192.604 577.13c-1.152 2.035.861 5.375 4.479 7.427l1.54.871c3.622 2.052 7.528 2.064 8.682.03l4.256-26.312c1.152-2.03-.869-5.373-4.489-7.425l-1.541-.866c-3.618-2.057-7.516-2.069-8.67-.034l-4.257 26.308" fill="#201e1d"/><path d="M194.92 578.44c-1.152 2.037.868 5.377 4.488 7.432l1.537.87c3.622 2.056 7.528 2.067 8.683.033l4.256-26.307c1.152-2.036-.87-5.376-4.49-7.43l-1.542-.873c-3.615-2.046-7.521-2.07-8.676-.032l-4.256 26.307" fill="#7d7e80"/><path d="M192.604 577.13c-1.152 2.035.861 5.375 4.479 7.427l1.54.871c3.622 2.052 7.528 2.064 8.682.03l4.256-26.312c1.152-2.03-.869-5.373-4.489-7.425l-1.541-.866c-3.618-2.057-7.516-2.069-8.67-.034l-4.257 26.308" fill="#201e1d"/><path d="M560.633 458.952c-2.034-1.152-5.381.867-7.43 4.483l-.875 1.54c-2.05 3.62-2.061 7.53-.024 8.682l26.307 4.258c2.034 1.153 5.374-.871 7.426-4.491l.872-1.537c2.051-3.619 2.068-7.526.031-8.679l-26.307-4.256" fill="#7d7e80"/><path d="M561.948 456.636c-2.035-1.155-5.38.863-7.43 4.48l-.87 1.536c-2.053 3.623-2.067 7.53-.03 8.683l26.307 4.253c2.038 1.157 5.378-.867 7.431-4.488l.867-1.537c2.054-3.62 2.069-7.516.032-8.674l-26.307-4.253" fill="#201e1d"/><path d="M560.633 458.952c-2.034-1.152-5.381.867-7.43 4.483l-.875 1.54c-2.05 3.62-2.061 7.53-.024 8.682l26.307 4.258c2.034 1.153 5.374-.871 7.426-4.491l.872-1.537c2.051-3.619 2.068-7.526.031-8.679l-26.307-4.256" fill="#7d7e80"/><path d="M561.948 456.636c-2.035-1.155-5.38.863-7.43 4.48l-.87 1.536c-2.053 3.623-2.067 7.53-.03 8.683l26.307 4.253c2.038 1.157 5.378-.867 7.431-4.488l.867-1.537c2.054-3.62 2.069-7.516.032-8.674l-26.307-4.253" fill="#201e1d"/><path d="M92.073 193.447c-2.036-1.155-5.38.864-7.43 4.485l-.874 1.537c-2.052 3.62-2.061 7.531-.031 8.683l26.31 4.259c2.038 1.154 5.377-.872 7.43-4.494l.871-1.541c2.048-3.616 2.07-7.519.034-8.676l-26.31-4.253" fill="#7d7e80"/><path d="M93.386 191.13c-2.033-1.153-5.378.86-7.427 4.478l-.872 1.539c-2.052 3.622-2.066 7.529-.03 8.682l26.31 4.255c2.035 1.153 5.375-.867 7.427-4.49l.87-1.537c2.054-3.617 2.068-7.518.03-8.673l-26.308-4.253" fill="#201e1d"/><path d="M92.073 193.447c-2.036-1.155-5.38.864-7.43 4.485l-.874 1.537c-2.052 3.62-2.061 7.531-.031 8.683l26.31 4.259c2.038 1.154 5.377-.872 7.43-4.494l.871-1.541c2.048-3.616 2.07-7.519.034-8.676l-26.31-4.253" fill="#7d7e80"/><path d="M93.386 191.13c-2.033-1.153-5.378.86-7.427 4.478l-.872 1.539c-2.052 3.622-2.066 7.529-.03 8.682l26.31 4.255c2.035 1.153 5.375-.867 7.427-4.49l.87-1.537c2.054-3.617 2.068-7.518.03-8.673l-26.308-4.253" fill="#201e1d"/><path d="M582.824 263.665c-2.252.622-3.192 4.418-2.081 8.423l.47 1.708c1.114 4.01 3.864 6.785 6.118 6.161l21.616-15.596c2.252-.624 3.186-4.417 2.073-8.422l-.472-1.71c-1.108-4.008-3.856-6.785-6.11-6.161l-21.614 15.597" fill="#7d7e80"/><path d="M582.116 261.099c-2.255.621-3.193 4.409-2.09 8.416l.475 1.708c1.11 4.008 3.867 6.78 6.119 6.161l21.612-15.596c2.26-.627 3.187-4.417 2.077-8.425l-.469-1.707c-1.11-4.008-3.857-6.777-6.112-6.153l-21.612 15.596" fill="#201e1d"/><path d="M582.824 263.665c-2.252.622-3.192 4.418-2.081 8.423l.47 1.708c1.114 4.01 3.864 6.785 6.118 6.161l21.616-15.596c2.252-.624 3.186-4.417 2.073-8.422l-.472-1.71c-1.108-4.008-3.856-6.785-6.11-6.161l-21.614 15.597" fill="#7d7e80"/><path d="M582.116 261.099c-2.255.621-3.193 4.409-2.09 8.416l.475 1.708c1.11 4.008 3.867 6.78 6.119 6.161l21.612-15.596c2.26-.627 3.187-4.417 2.077-8.425l-.469-1.707c-1.11-4.008-3.857-6.777-6.112-6.153l-21.612 15.596" fill="#201e1d"/><path d="M63.763 407.245c-2.258.626-3.193 4.416-2.085 8.423l.47 1.708c1.11 4.008 3.863 6.783 6.118 6.16l21.612-15.595c2.258-.622 3.188-4.417 2.08-8.428l-.472-1.704c-1.108-4.008-3.856-6.781-6.111-6.156l-21.612 15.592" fill="#7d7e80"/><path d="M63.052 404.679c-2.253.626-3.195 4.409-2.084 8.42l.47 1.705c1.11 4.007 3.863 6.781 6.118 6.16l21.612-15.597c2.255-.626 3.188-4.414 2.077-8.424l-.472-1.707c-1.108-4.008-3.854-6.775-6.109-6.153l-21.612 15.596" fill="#201e1d"/><path d="M63.763 407.245c-2.258.626-3.193 4.416-2.085 8.423l.47 1.708c1.11 4.008 3.863 6.783 6.118 6.16l21.612-15.595c2.258-.622 3.188-4.417 2.08-8.428l-.472-1.704c-1.108-4.008-3.856-6.781-6.111-6.156l-21.612 15.592" fill="#7d7e80"/><path d="M63.052 404.679c-2.253.626-3.195 4.409-2.084 8.42l.47 1.705c1.11 4.007 3.863 6.781 6.118 6.16l21.612-15.597c2.255-.626 3.188-4.414 2.077-8.424l-.472-1.707c-1.108-4.008-3.854-6.775-6.109-6.153l-21.612 15.596" fill="#201e1d"/><path d="M406.85 581.348c-.62-2.253-4.411-3.19-8.422-2.08l-1.707.47c-4.013 1.113-6.784 3.865-6.16 6.12l15.591 21.613c.627 2.253 4.417 3.185 8.43 2.074l1.705-.47c4.01-1.106 6.782-3.858 6.158-6.112l-15.596-21.615" fill="#7d7e80"/><path d="M409.416 580.639c-.62-2.253-4.407-3.19-8.415-2.087l-1.704.473c-4.013 1.111-6.786 3.866-6.16 6.115l15.588 21.615c.63 2.261 4.418 3.186 8.432 2.082l1.704-.476c4.006-1.109 6.775-3.852 6.152-6.11l-15.597-21.612" fill="#201e1d"/><path d="M406.85 581.348c-.62-2.253-4.411-3.19-8.422-2.08l-1.707.47c-4.013 1.113-6.784 3.865-6.16 6.12l15.591 21.613c.627 2.253 4.417 3.185 8.43 2.074l1.705-.47c4.01-1.106 6.782-3.858 6.158-6.112l-15.596-21.615" fill="#7d7e80"/><path d="M409.416 580.639c-.62-2.253-4.407-3.19-8.415-2.087l-1.704.473c-4.013 1.111-6.786 3.866-6.16 6.115l15.588 21.615c.63 2.261 4.418 3.186 8.432 2.082l1.704-.476c4.006-1.109 6.775-3.852 6.152-6.11l-15.597-21.612" fill="#201e1d"/><path d="M263.268 62.287c-.624-2.259-4.413-3.194-8.423-2.084l-1.706.47c-4.01 1.111-6.782 3.867-6.159 6.119l15.595 21.612c.624 2.257 4.414 3.185 8.425 2.083l1.704-.472c4.01-1.112 6.784-3.859 6.16-6.116l-15.596-21.612" fill="#7d7e80"/><path d="M265.835 61.579c-.624-2.259-4.411-3.196-8.416-2.086l-1.702.471c-4.018 1.105-6.788 3.863-6.165 6.117l15.593 21.612c.624 2.256 4.418 3.187 8.431 2.079l1.701-.472c4.011-1.108 6.778-3.857 6.154-6.11l-15.596-21.61" fill="#201e1d"/><path d="M263.268 62.287c-.624-2.259-4.413-3.194-8.423-2.084l-1.706.47c-4.01 1.111-6.782 3.867-6.159 6.119l15.595 21.612c.624 2.257 4.414 3.185 8.425 2.083l1.704-.472c4.01-1.112 6.784-3.859 6.16-6.116l-15.596-21.612" fill="#7d7e80"/><path d="M265.835 61.579c-.624-2.259-4.411-3.196-8.416-2.086l-1.702.471c-4.018 1.105-6.788 3.863-6.165 6.117l15.593 21.612c.624 2.256 4.418 3.187 8.431 2.079l1.701-.472c4.011-1.108 6.778-3.857 6.154-6.11l-15.596-21.61" fill="#201e1d"/><path d="M197.432 375.332c-4.005 32.02 40.85 103.41 74.57 99.53 30.694-3.527 40.849-14.4 32.417-30.867-8.442-16.482-42.727-11.668-64.04-63.24-10.328-24.987-39.008-19.092-39.008-19.092l-3.939 13.669" fill="#100f0d"/><path d="M194.404 376.884c-4.005 32.017 40.847 103.41 74.57 99.532 30.689-3.53 40.851-14.401 32.417-30.872-8.44-16.477-42.734-11.665-64.043-63.239-10.328-24.985-39.01-19.093-39.01-19.093l-3.934 13.672" fill="#53473f"/><path d="M201.707 382.537c-3.488 27.86 35.544 89.988 64.888 86.612 26.709-3.073 35.548-12.536 28.208-26.873-7.339-14.33-37.178-10.145-55.723-55.021-8.995-21.746-33.945-16.618-33.945-16.618l-3.428 11.9" fill="#9e9992"/><path d="M258.43 461.615a6.71 6.71 0 012.909-9.027 6.702 6.702 0 019.025 2.917 6.7 6.7 0 01-2.91 9.022 6.706 6.706 0 01-9.023-2.912" fill="#100f0d"/><path d="M268.597 456.32a4.757 4.757 0 01-2.069 6.404 4.758 4.758 0 112.07-6.404" fill="#53473f"/><path d="M267.153 459.707c.204.402-.374 1.108-1.301 1.582-.93.479-1.85.538-2.055.138-.206-.399.379-1.112 1.308-1.587.928-.477 1.846-.533 2.048-.133" fill="#fff"/><path d="M205.152 398.179a6.703 6.703 0 1111.936-6.11 6.702 6.702 0 01-2.91 9.022 6.709 6.709 0 01-9.026-2.912" fill="#100f0d"/><path d="M215.321 392.885a4.76 4.76 0 01-2.069 6.404 4.754 4.754 0 01-6.4-2.066 4.754 4.754 0 012.061-6.404 4.762 4.762 0 016.408 2.066" fill="#53473f"/><path d="M213.877 396.27c.202.403-.376 1.109-1.301 1.582-.93.479-1.852.539-2.055.14-.209-.4.376-1.113 1.308-1.59.926-.474 1.843-.533 2.048-.131" fill="#fff"/><path d="M276.63 444.38a5.208 5.208 0 012.258-7.01 5.205 5.205 0 017.012 2.266 5.203 5.203 0 01-2.261 7.003 5.206 5.206 0 01-7.008-2.259" fill="#100f0d"/><path d="M284.528 440.268a3.699 3.699 0 01-1.61 4.975 3.692 3.692 0 01-4.969-1.606 3.693 3.693 0 011.603-4.974 3.703 3.703 0 014.976 1.605" fill="#53473f"/><path d="M283.404 442.899c.159.312-.29.858-1.008 1.229-.721.37-1.439.415-1.596.107-.161-.314.292-.866 1.016-1.234.717-.369 1.432-.414 1.588-.102" fill="#fff"/><path d="M221.49 384.004a5.212 5.212 0 012.26-7.012 5.205 5.205 0 017.009 2.264 5.2 5.2 0 01-2.26 7.005 5.207 5.207 0 01-7.01-2.257" fill="#100f0d"/><path d="M229.387 379.89a3.696 3.696 0 11-6.581 3.366 3.696 3.696 0 016.58-3.365" fill="#53473f"/><path d="M228.264 382.52c.16.312-.29.861-1.01 1.23-.722.373-1.437.415-1.595.109-.162-.314.292-.866 1.017-1.236.72-.371 1.43-.415 1.588-.103" fill="#fff"/><g clip-path="url(#c)" transform="matrix(.13333 0 0 -.13333 0 669.333)"><path d="M1868.73 2728.72c104.14 109.97-106.31 258.35-191.24 284.8-31.6 9.8-68.27 14.2-103.19 22.23-45.98-101.78-77.14-211.68-89.84-327.2 147.79-.54 327.76-39.5 384.27 20.17" fill="url(#d)"/></g><g clip-path="url(#e)" transform="matrix(.13333 0 0 -.13333 0 669.333)"><path d="M2105.9 3045.84c51.74-6.87 94.86-27.43 135.67-43.1 57.71-22.12-140.69 578.84-253.54 507.72-119.3-75.05-223-172.79-305.23-287.12 43.28-28.24 84.26-63 120.58-82.4 84.77-45.57 209.26-82.81 302.52-95.1" fill="url(#f)"/></g><g clip-path="url(#g)" transform="matrix(.13333 0 0 -.13333 0 669.333)"><path d="M3187.72 2140.99c-22.42-93.54-62.13-155.41-53.97-256.96 10.82-134.26 81.02-239.46 159.46-342.02 94.38 66.05 177.86 146.63 247.08 238.56l-352.57 360.42" fill="url(#h)"/></g><g clip-path="url(#i)" transform="matrix(.13333 0 0 -.13333 0 669.333)"><path d="M3263.52 3523.33c-83.42 5.91-457.21-184.24-404.62-521.46-196.12 292.76-179.95 1068.56 274.99 679.54 53.57-45.74 94.01-106.7 123.21-170.95l6.42 12.87" fill="url(#j)"/></g><g clip-path="url(#k)" transform="matrix(.13333 0 0 -.13333 0 669.333)"><path d="M2317.68 3676.18c145.77-124.33 88.08-514.89 132.74-668.04 156.33 62.72 239.59 331.35 242.57 481.92 1.7 85.05-2.51 156.19-81.76 194.97-107.08 52.43-198.72 27.84-293.55-8.85" fill="url(#l)"/></g><path d="M133.884 334.507c0-111.436 90.663-202.094 202.105-202.094 111.447 0 202.112 90.658 202.112 202.094 0 111.453-90.665 202.122-202.112 202.122-111.442 0-202.105-90.669-202.105-202.122zm-6.125 0c0 114.833 93.41 208.252 208.23 208.252 114.824 0 208.239-93.419 208.239-208.252 0-114.819-93.415-208.224-208.239-208.224-114.82 0-208.23 93.405-208.23 208.224" fill="#100f0d"/><path d="M175.724 334.221c0-88.526 72.024-160.552 160.547-160.552 88.536 0 160.569 72.026 160.569 160.552 0 88.542-72.033 160.579-160.57 160.579-88.522 0-160.546-72.037-160.546-160.579zm-6.128 0c0 91.926 74.772 166.699 166.675 166.699 91.92 0 166.692-74.773 166.692-166.699 0-91.909-74.772-166.673-166.692-166.673-91.903 0-166.675 74.764-166.675 166.673" fill="#100f0d"/><path d="M215.263 463.252l4.761 3.855c22.025-27.2 61.977-68.059 75.43-61.896 12.44 5.704-1.483 60.496-15.34 97.594l5.733 2.136c5.909-15.804 34.269-95.17 12.164-105.297-22.151-10.153-76.618 56.036-82.748 63.608m128.449-49.555c-24.57 5.182-29.079 93.542-29.51 103.599l6.125.268c1.55-36.168 9.633-94.707 24.652-97.879 13.894-2.921 36.065 51.191 47.373 90.559l5.884-1.688c-4.803-16.75-30.03-100.012-54.524-94.859m74.121-60.237c-1.749 25.041 81.994 53.595 91.559 56.772l1.93-5.817c-34.355-11.408-88.445-35.222-87.374-50.528.988-14.175 59.112-20.666 100.059-20.76l-.019-6.123c-17.416.036-104.405 1.47-106.155 26.456m-37.59-92.163c23.366 9.208 75.781-62.08 81.684-70.248l-4.967-3.584c-21.212 29.326-60.19 73.758-74.475 68.131-13.201-5.204-1.92-62.584 10.312-101.676l-5.852-1.828c-5.202 16.632-29.985 100.024-6.702 109.205m-149.06-84.529c22.392 28.435 54.438 78.099 45.121 90.281-8.63 11.286-60.725-15.281-94.957-37.754l-3.366 5.126c14.562 9.558 87.978 56.243 103.188 36.348 15.248-19.929-38.942-89.88-45.173-97.794l-4.813 3.793m-73.982 192.095l1.775 5.866c34.628-10.532 92.544-22.354 100.519-9.244 7.373 12.139-36.306 51.024-69.678 74.759l3.548 4.992c14.202-10.093 84.364-61.537 71.36-82.932-13.041-21.447-97.897 3.63-107.524 6.559m232.446 22.794c-17.487 16.979 24.493 91.696 29.344 100.155l5.321-3.035c-17.384-30.378-41.021-82.416-30.399-92.722 9.823-9.539 55.855 23.282 85.407 49.628l4.076-4.571c-12.592-11.235-76.3-66.396-93.75-49.455m21.926-92.633c12.183 21.1 94.895-1.321 104.296-3.955l-1.652-5.904c-33.701 9.428-89.937 19.614-97.333 6.792-6.839-11.837 36.237-48.452 69.016-70.672l-3.443-5.07c-13.972 9.465-83.044 57.762-70.884 78.809m-68.171-147.965c.568 34.997-3.844 91.973-18.114 95.876-13.206 3.629-37.696-47.326-50.866-84.664l-5.78 2.042c5.612 15.912 34.796 94.97 58.267 88.543 23.503-6.447 22.773-92.147 22.621-101.89l-6.128.093m-177.4 111.885c32.874 12.021 84.48 36.552 83.014 51.272-1.362 13.621-57.692 18.223-97.272 17.145l-.164 6.13c16.866.453 101.125 1.534 103.536-22.66 2.409-24.256-77.859-54.291-87.018-57.638l-2.096 5.751" fill="#100f0d"/><g clip-path="url(#m)" transform="matrix(.13333 0 0 -.13333 0 669.333)"><path d="M3156.68 2367.44c8.4 119.91 365.99 158.64 592 171.05.12-8.41.58-16.63.58-25.15 0-171.42-35.24-334.58-98.69-482.74-201.53 80.26-502.06 219.95-493.89 336.84zm-45.24-930.61c-91.27 174.62-265.16 539.93-173.1 629.24 88.84 86.24 403.83-149.49 569.02-284.4-105.3-141.62-240.36-259.53-395.92-344.84zm-589.41-150.72c-44.34 0-88.24 2.5-131.45 7.11 19.83 213.44 71.04 576 192.01 601.61 121.53 25.51 261.81-331.43 333.89-543.66-123.8-41.94-256.37-65.06-394.45-65.06zm-434.16 2375c135.01 51.08 281.34 79.3 434.16 79.3 25.07 0 49.85-.95 74.51-2.48-6.81-207.36-35.5-560.57-150.8-592.1-117.86-32.32-277.15 315.82-357.87 515.28zm69.45-2319.89c-173.55 53.96-330.48 145.33-461.55 264.78 127.14 145.97 411.35 450.04 529.71 395.74 117.82-53.97-3.48-466.56-68.16-660.52zm-837.88 927.05c205.09 52.4 580.56 130.78 646.38 22.54 67.47-111.04-253.13-380.54-425.41-513.9-107.26 142.83-184.15 309.85-220.97 491.36zm-24.49 245.07c0 177.11 37.76 345.16 105.26 497.24 191.95-81.62 501.97-232.19 490.26-349.48-11.82-119.04-378.27-144.47-595.52-148.99v1.23zm572.43 1037.62c123.73-178.2 293.59-455.67 223.18-547.78-73.61-96.16-397.75 71.67-592.78 185.68 96.06 145.28 222.25 268.91 369.6 362.1zm1005.7 138.25c167.86-50.03 320.55-135.06 449.88-246.55-137.61-167.73-355.52-403.21-462.73-360.99-110.31 43.46-42.81 387.78 12.85 607.54zm843.8-896.34c-202.42-46.01-550.45-107.47-610.19-4.03-59.34 102.79 219.19 334.74 393.2 465.72 102.38-134.78 177.29-291.45 216.99-461.69zM2519.92 4049.88c-849.79 0-1538.768-688.92-1538.768-1538.68 0-849.99 688.978-1538.899 1538.768-1538.899 849.87 0 1538.81 688.909 1538.81 1538.899 0 849.76-688.94 1538.68-1538.81 1538.68" fill="url(#n)"/></g><g clip-path="url(#o)" transform="matrix(.13333 0 0 -.13333 0 669.333)"><path d="M3692.03 1930.87l-70.09 27.87c-492.78 196.11-548.74 324.36-542.5 414.17 6.79 96.27 88.46 210.99 664.93 242.84 0 0 79.22 4.4 79.24 3.71l2.32-79.3.28-8.56c.18-5.52.42-11.71.42-18.26 0-177.94-35.34-350.58-104.93-513.19zm-122.6-195.35c-111.59-149.98-257.05-276.79-420.78-366.64l-69.24-38-36.51 70.06c-303.16 580.15-198.06 682.25-158.43 720.63 69.96 68.08 209.63 97.62 671.81-280.05l57.22-46.68zm-628.11-457.56c-135.39-45.93-276.47-69.24-419.29-69.24-45.47 0-92.45 2.52-139.6 7.59l-75.96 8 7.07 76.05c52.27 563.8 169.47 652.49 253.12 670.15 96.09 20.26 231.06-29.02 423.11-594.39l24.86-73.34zm-734.6-33.14l-72.39 22.48c-180.5 56.13-350.21 153.48-490.67 281.59l-55.89 50.88 49.68 57.08c435.4 500.05 569.73 438.46 620.31 415.22 90.77-41.58 169.74-165.09-27.03-755.34zm-681.03 422.86l-47.15 62.68c-115.62 153.98-196.81 334.59-234.91 522.55l-14.65 72.12 71.3 18.21c626.82 160.03 702.95 34.91 731.64-12.27 52.18-85.96 48.98-233.61-444.16-615.27zm-308.14 845.66c0 183.47 37.69 361.25 111.97 528.63l30.87 69.57 70.12-29.81c492.88-209.58 545.83-338.92 536.98-428.32-9.56-95.37-94.36-206.51-670.89-218.69 0 0-79.05-1.68-79.05-.45zm215.64 718.21c101.41 153.39 237.29 286.43 392.87 384.77l62.62 39.62 42.26-60.79c299.3-431.05 275.31-567.94 221.02-638.96-58.87-77.08-190.95-127.83-693.23 165.82l-70.57 41.33zm627.31 501.94c147.9 55.96 303.14 84.29 461.53 84.29 24.65 0 50.55-.81 79.3-2.59l75.06-4.67-2.52-75.2c-18.13-549.29-127.23-642.15-207.74-664.16-93.51-25.51-229.09 14.98-449.98 560.89l-29.67 73.46zm737.56-25.3l19.82 78.11 77.27-22.95c176.79-52.71 337.72-140.89 478.33-262.16l57.19-49.38-47.93-58.26c-330.42-402.39-467.93-416.54-550.82-383.88-89.23 35.16-173.73 146.36-33.86 698.52zm716.87-345.48l46.57-61.33c111.35-146.58 188.93-311.82 230.72-490.96l17.69-75.82-75.87-17.17c-535.33-121.5-652.66-39.5-694.31 32.74-47.79 82.63-43.9 221.79 413.62 566.16zm-995.01 609.75c-805.8 0-1461.43-655.48-1461.43-1461.26 0-805.91 655.63-1461.55 1461.43-1461.55 390.37 0 757.37 152.04 1033.42 428.02 275.99 276.09 428.04 643.11 428.04 1033.53 0 805.78-655.58 1461.26-1461.46 1461.26" fill="url(#p)"/></g><g clip-path="url(#q)" transform="matrix(.13333 0 0 -.13333 0 669.333)"><path d="M1165.98 2350.2s875.03 175.16 973.41 29.28c98.24-145.82-635.59-795.09-635.59-795.09l-66.88 115.06s620.25 441.05 528.9 591.36c-91.38 150.23-780.19-59.29-780.19-59.29l-19.65 118.68" fill="url(#r)"/></g><g clip-path="url(#s)" transform="matrix(.13333 0 0 -.13333 0 669.333)"><path d="M2248.35 1199.6s155.54 878.67 327.2 917.13c171.66 38.44 508.98-881.54 508.98-881.54l-131.48-20.32s-184.76 738.2-358.1 707.88c-173.24-30.32-228.92-748.11-228.92-748.11l-117.68 24.96" fill="url(#t)"/></g><g clip-path="url(#u)" transform="matrix(.13333 0 0 -.13333 0 669.333)"><path d="M3760 1880s-821.94 347.6-821.2 523.47c.91 175.91 972.83 299.69 972.83 299.69l-9.45-132.76s-760.84-15.49-769.97-191.28c-9.05-175.57 678.3-390.02 678.3-390.02L3760 1880" fill="url(#v)"/></g><g clip-path="url(#w)" transform="matrix(.13333 0 0 -.13333 0 669.333)"><path d="M3539.21 3488.59s-623.05-638.91-786.57-574.07c-163.48 64.89 75.29 1015.06 75.29 1015.06l120.14-57.13s-262.67-714.26-102.36-786.78c160.31-72.31 610.28 489.65 610.28 489.65l83.22-86.73" fill="url(#x)"/></g><g clip-path="url(#y)" transform="matrix(.13333 0 0 -.13333 0 669.333)"><path d="M1847.52 3766.47s467.97-759.85 365.21-902.73c-102.66-142.69-966.18 320.16-966.18 320.16l84.71 102.71s628.72-428.71 738.14-290.79c109.17 137.77-326.35 711.09-326.35 711.09l104.47 59.56" fill="url(#z)"/></g><path d="M347.115 275.065c0 9.027-7.307 16.328-16.335 16.328-9.015 0-16.332-7.301-16.332-16.328 0-9.016 7.317-16.322 16.332-16.322 9.028 0 16.335 7.306 16.335 16.322M297.02 319.42c0 9.024-7.31 16.332-16.325 16.332-9.028 0-16.343-7.308-16.343-16.332 0-9.019 7.315-16.335 16.343-16.335 9.014 0 16.325 7.316 16.325 16.335m27.517 60.09c0 9.018-7.32 16.329-16.345 16.329-9.005 0-16.325-7.311-16.325-16.33 0-9.02 7.32-16.329 16.325-16.329 9.025 0 16.345 7.31 16.345 16.33m68.762-6.878c0 9.017-7.307 16.332-16.324 16.332-9.022 0-16.332-7.315-16.332-16.332 0-9.013 7.31-16.34 16.332-16.34 9.017 0 16.324 7.327 16.324 16.34m12.9-63.068c0 9.013-7.311 16.336-16.335 16.336-9.013 0-16.335-7.323-16.335-16.336 0-9.016 7.322-16.335 16.335-16.335 9.024 0 16.335 7.319 16.335 16.335" fill="#100f0d"/><g clip-path="url(#A)" transform="matrix(.13333 0 0 -.13333 0 669.333)"><path d="M2763.37 2522.76c0-127.56-103.39-230.89-230.91-230.89-127.49 0-230.84 103.33-230.84 230.89 0 127.46 103.35 230.93 230.84 230.93 127.52 0 230.91-103.47 230.91-230.93" fill="url(#B)"/></g><g clip-path="url(#C)" transform="matrix(.13333 0 0 -.13333 0 669.333)"><path d="M2678.81 2524.72c0-79.69-64.63-144.3-144.27-144.3-79.78 0-144.39 64.61-144.39 144.3 0 79.78 64.61 144.43 144.39 144.43 79.64 0 144.27-64.65 144.27-144.43" fill="url(#D)"/></g><g clip-path="url(#E)" transform="matrix(.13333 0 0 -.13333 0 669.333)"><path d="M2013.58 2678.11c-64.85-115.19 96.38-212.1 180.35-111.47-70.58-30.44-180.35 15.23-180.35 111.47" fill="url(#F)"/></g><g clip-path="url(#G)" transform="matrix(.13333 0 0 -.13333 0 669.333)"><path d="M2389.69 3011.23c-64.83-115.17 96.38-212.02 180.33-111.47-70.53-30.36-180.33 15.22-180.33 111.47" fill="url(#H)"/></g><g clip-path="url(#I)" transform="matrix(.13333 0 0 -.13333 0 669.333)"><path d="M2832.45 2759.84c-64.89-115.3 96.35-212.1 180.31-111.48-70.53-30.38-180.31 15.17-180.31 111.48" fill="url(#J)"/></g><g clip-path="url(#K)" transform="matrix(.13333 0 0 -.13333 0 669.333)"><path d="M2746.46 2289.16c-64.85-115.19 96.42-212.06 180.38-111.53-70.55-30.28-180.38 15.21-180.38 111.53" fill="url(#L)"/></g><g clip-path="url(#M)" transform="matrix(.13333 0 0 -.13333 0 669.333)"><path d="M2222.11 2231.14c-64.85-115.25 96.38-212.14 180.34-111.48-70.56-30.41-180.34 15.19-180.34 111.48" fill="url(#N)"/></g></svg>